G04*
G04 #@! TF.GenerationSoftware,Altium Limited,Altium Designer,22.11.1 (43)*
G04*
G04 Layer_Physical_Order=1*
G04 Layer_Color=255*
%FSLAX44Y44*%
%MOMM*%
G71*
G04*
G04 #@! TF.SameCoordinates,6325C8D2-15E4-4679-A439-48E371F70F26*
G04*
G04*
G04 #@! TF.FilePolarity,Positive*
G04*
G01*
G75*
%ADD13C,0.2000*%
%ADD14C,0.2500*%
%ADD15C,0.1270*%
%ADD22R,1.4000X1.2500*%
%ADD23R,0.4000X1.8500*%
%ADD24R,0.5500X0.3000*%
%ADD25R,0.5000X0.3000*%
%ADD26R,0.3000X0.5000*%
%ADD27R,0.3000X0.5500*%
%ADD28R,5.2000X5.2000*%
%ADD29R,1.1500X0.4300*%
%ADD30O,1.1500X0.4300*%
%ADD31R,1.2500X1.4000*%
%ADD32R,0.4750X0.2500*%
%ADD33R,0.2500X0.4750*%
%ADD34R,0.9000X1.0000*%
%ADD35R,0.9000X1.0000*%
%ADD36R,1.0000X0.9000*%
%ADD37R,1.0000X0.9000*%
%ADD38R,1.1000X1.9000*%
%ADD39R,4.0000X2.0000*%
%ADD65R,0.5000X0.5000*%
%ADD66R,0.5000X0.5000*%
%ADD79C,1.5000*%
%ADD80R,0.6200X0.5700*%
%ADD81R,0.5700X0.6200*%
%ADD82C,0.3362*%
%ADD83C,0.4000*%
%ADD84C,0.7000*%
%ADD85C,0.6000*%
%ADD86C,0.5000*%
%ADD87C,2.1000*%
%ADD88C,2.2000*%
%ADD89R,1.7000X1.7000*%
%ADD90R,1.8000X1.8000*%
%ADD91C,1.7000*%
%ADD92R,3.8100X3.8100*%
%ADD93C,3.8100*%
%ADD94C,0.4000*%
G04:AMPARAMS|DCode=95|XSize=0.9mm|YSize=0.3mm|CornerRadius=0.075mm|HoleSize=0mm|Usage=FLASHONLY|Rotation=270.000|XOffset=0mm|YOffset=0mm|HoleType=Round|Shape=RoundedRectangle|*
%AMROUNDEDRECTD95*
21,1,0.9000,0.1500,0,0,270.0*
21,1,0.7500,0.3000,0,0,270.0*
1,1,0.1500,-0.0750,-0.3750*
1,1,0.1500,-0.0750,0.3750*
1,1,0.1500,0.0750,0.3750*
1,1,0.1500,0.0750,-0.3750*
%
%ADD95ROUNDEDRECTD95*%
%ADD96C,0.6000*%
G36*
X591820Y521970D02*
Y506730D01*
X589227Y504137D01*
X588150Y504856D01*
X588400Y505460D01*
X582930D01*
Y506730D01*
X581660D01*
Y512200D01*
X579792Y511427D01*
X578408Y510043D01*
X570738D01*
X569567Y509810D01*
X568575Y509147D01*
X567690Y508262D01*
X566420Y508788D01*
Y523240D01*
X570230Y527050D01*
X586740D01*
X591820Y521970D01*
D02*
G37*
G36*
X1041400Y623570D02*
Y580390D01*
X1038860Y577850D01*
X980440D01*
X976630Y581660D01*
Y633730D01*
X982980Y640080D01*
X1024890D01*
X1041400Y623570D01*
D02*
G37*
%LPC*%
G36*
X584200Y512200D02*
Y508000D01*
X588400D01*
X587627Y509868D01*
X586068Y511427D01*
X584200Y512200D01*
D02*
G37*
G36*
X1027110Y634660D02*
X1005840D01*
Y623390D01*
X1027110D01*
Y634660D01*
D02*
G37*
G36*
X1003300D02*
X982030D01*
Y623390D01*
X1003300D01*
Y634660D01*
D02*
G37*
G36*
X1027110Y620850D02*
X1005840D01*
Y609580D01*
X1027110D01*
Y620850D01*
D02*
G37*
G36*
X1003300D02*
X982030D01*
Y609580D01*
X1003300D01*
Y620850D01*
D02*
G37*
G36*
X1014130Y588890D02*
X1007110D01*
Y585470D01*
X1014130D01*
Y588890D01*
D02*
G37*
G36*
X1004570D02*
X997550D01*
Y585470D01*
X1004570D01*
Y588890D01*
D02*
G37*
G36*
X1014130Y582930D02*
X1007110D01*
Y579510D01*
X1014130D01*
Y582930D01*
D02*
G37*
G36*
X1004570D02*
X997550D01*
Y579510D01*
X1004570D01*
Y582930D01*
D02*
G37*
%LPD*%
D13*
X853840Y577450D02*
X878440D01*
X878840Y577850D01*
X745490Y501650D02*
X753110Y509270D01*
X784860D01*
X548640Y618490D02*
Y645160D01*
X549910Y646430D01*
X548640Y618490D02*
X552450Y614680D01*
X562610D01*
X595630Y580390D02*
X596900Y581660D01*
X578260Y580390D02*
X595630D01*
X596900Y581660D02*
Y609600D01*
X591820Y614680D02*
X596900Y609600D01*
X572210Y614680D02*
X591820D01*
X789940Y431800D02*
Y447740D01*
X788670Y339090D02*
Y360680D01*
Y339090D02*
X793750Y334010D01*
X825500D01*
X831850Y327660D01*
X774700Y334010D02*
X779780Y328930D01*
X801370D02*
X806450Y323850D01*
X779780Y328930D02*
X801370D01*
X831850Y285750D02*
Y327660D01*
X857250Y308610D02*
X873760D01*
X881380Y316230D01*
Y420397D01*
X876327Y425450D02*
X881380Y420397D01*
X732090Y426622D02*
Y481330D01*
Y426622D02*
X733262Y425450D01*
X876327D01*
X871220Y431450D02*
Y447740D01*
X751490D02*
X763270D01*
X806450Y285750D02*
Y323850D01*
X774700Y334010D02*
Y360680D01*
X897122Y495530D02*
X899360D01*
X893730Y497840D02*
X894812D01*
X899360Y495530D02*
X900860Y494030D01*
X894812Y497840D02*
X897122Y495530D01*
X909320Y504190D02*
X911860Y501650D01*
X930910Y509270D02*
X935560Y504620D01*
X892810Y509270D02*
X930910D01*
X872490Y520700D02*
X889000Y504190D01*
X877570Y524510D02*
X892810Y509270D01*
X889000Y504190D02*
X909320D01*
X910590Y424180D02*
X911365Y424955D01*
X877570Y524510D02*
Y537210D01*
X907415Y286385D02*
X908050Y285750D01*
X906780Y346710D02*
X907415Y346075D01*
Y286385D02*
Y346075D01*
X792190Y515910D02*
Y520800D01*
Y515910D02*
X796290Y511810D01*
X763270Y529590D02*
X771471D01*
X778932Y537050D02*
X785940D01*
X771471Y529590D02*
X778932Y537050D01*
X1104900Y558800D02*
X1135380D01*
X867410Y694690D02*
X871220Y690880D01*
X775970Y694690D02*
X867410D01*
X863250Y688690D02*
X866140Y685800D01*
X758190Y703580D02*
X773080Y688690D01*
X863250D01*
X866140Y602459D02*
Y685800D01*
X871220Y586740D02*
Y690880D01*
X869293Y584813D02*
X871220Y586740D01*
X861207Y584813D02*
X869293D01*
X864968Y601287D02*
X866140Y602459D01*
X853746Y601287D02*
X864968D01*
X857250Y285750D02*
Y308610D01*
X574040Y490220D02*
Y496900D01*
X579040D02*
X579450Y496490D01*
X572770Y488950D02*
X574040Y490220D01*
X568862Y488950D02*
X572770D01*
X579450Y489175D02*
X579861Y488765D01*
X579450Y489175D02*
Y496490D01*
X567690Y487778D02*
X568862Y488950D01*
X567690Y474410D02*
X568390Y473710D01*
X567690Y474410D02*
Y487778D01*
X574040Y533400D02*
Y547370D01*
X568960Y552450D02*
X574040Y547370D01*
X561340D02*
X565150D01*
X569040Y543480D01*
Y533400D02*
Y543480D01*
X575310Y554990D02*
X579040Y551260D01*
X575310Y554990D02*
Y562190D01*
X579040Y533400D02*
Y551260D01*
X556260Y570230D02*
X557950Y568540D01*
Y562610D02*
Y568540D01*
X541020Y570230D02*
X556260D01*
X535940Y575310D02*
Y593090D01*
Y575310D02*
X541020Y570230D01*
X539240Y596390D02*
X556260D01*
X535940Y593090D02*
X539240Y596390D01*
X556260D02*
Y603250D01*
X562610Y609600D02*
Y614680D01*
X556260Y603250D02*
X562610Y609600D01*
X548260Y580390D02*
X556260D01*
X545720Y582930D02*
X548260Y580390D01*
X544830Y582930D02*
X545720D01*
X557530Y551180D02*
X561340Y547370D01*
X557530Y551180D02*
Y562190D01*
X557950Y562610D01*
X574890Y569810D02*
X578260Y573180D01*
Y580390D01*
X574890Y562610D02*
Y569810D01*
Y562610D02*
X575310Y562190D01*
X628080Y589280D02*
X628080Y589280D01*
X613410Y589280D02*
X628080D01*
X628650Y570230D02*
Y589280D01*
Y608330D01*
X614680Y570230D02*
X628080D01*
X628080Y570230D01*
X628650Y628650D02*
Y657860D01*
Y608330D02*
Y628650D01*
Y551750D02*
Y570230D01*
X584040Y533400D02*
Y540315D01*
X588010Y544285D01*
Y544830D01*
X469475Y514775D02*
X480905D01*
X469050Y514350D02*
X469475Y514775D01*
X480905D02*
X481330Y515200D01*
X481755Y514775D01*
Y503345D02*
X482180Y502920D01*
X481755Y503345D02*
Y514775D01*
X493815Y502285D02*
X504825D01*
X505460Y501650D01*
X493180Y502920D02*
X493815Y502285D01*
X505885Y502075D02*
Y513925D01*
X506310Y514350D01*
X505460Y501650D02*
X505885Y502075D01*
X528740Y537210D02*
X529165Y536785D01*
X540595D02*
X541020Y536360D01*
X529165Y536785D02*
X540595D01*
X528740Y525780D02*
X528950Y525570D01*
X540810D02*
X541020Y525360D01*
X528950Y525570D02*
X540810D01*
X517525Y514565D02*
Y525565D01*
X517310Y514350D02*
X517525Y514565D01*
Y525565D02*
X517740Y525780D01*
X517525Y501865D02*
X517740Y501650D01*
X517525Y501865D02*
Y514135D01*
X517310Y514350D02*
X517525Y514135D01*
X528740Y501650D02*
X541020D01*
Y513080D02*
X543090Y515150D01*
X560790D01*
X541020Y501650D02*
Y513080D01*
X542192Y520150D02*
X560790D01*
X541020Y521322D02*
X542192Y520150D01*
X541020Y521322D02*
Y525360D01*
X555290Y525211D02*
X560729D01*
X552181Y528320D02*
X555290Y525211D01*
X551180Y528320D02*
X552181D01*
X560729Y525211D02*
X560790Y525150D01*
X943610Y553720D02*
Y564730D01*
Y553720D02*
X943610Y553720D01*
X922330Y559330D02*
X924980Y556680D01*
X1032510Y480060D02*
Y509270D01*
Y527620D01*
X916015Y622650D02*
Y634178D01*
X917186Y635350D02*
X925480D01*
X916015Y634178D02*
X917186Y635350D01*
X900430Y582549D02*
Y582930D01*
X903449Y579530D02*
X909830D01*
X900430Y582549D02*
X903449Y579530D01*
X911365Y424955D02*
Y450075D01*
X912140Y450850D01*
X811690Y588800D02*
X812190Y588300D01*
X815832Y596408D02*
X817190Y595050D01*
X803832Y597574D02*
Y598657D01*
Y597574D02*
X805832Y595574D01*
Y593349D02*
Y595574D01*
X837873Y592475D02*
Y603288D01*
X809832Y595005D02*
X811690Y593147D01*
X805180Y607629D02*
X809832Y602977D01*
X815832Y596408D02*
Y597491D01*
X806690Y588800D02*
Y592490D01*
X830878Y601414D02*
X833832Y598460D01*
Y593490D02*
Y598460D01*
X818113Y604111D02*
X821832Y600392D01*
X801690Y588800D02*
X802190Y588300D01*
X830878Y601414D02*
Y604468D01*
X801690Y588800D02*
Y592313D01*
X821832Y588658D02*
Y600392D01*
X837190Y588300D02*
X837690Y588800D01*
X827511Y595654D02*
X827832Y595975D01*
X806690Y588800D02*
X807190Y588300D01*
X817190D02*
Y595050D01*
X832690Y588800D02*
Y592348D01*
X805832Y593349D02*
X806690Y592490D01*
X811690Y588800D02*
Y593147D01*
X827511Y588621D02*
Y595654D01*
X792281Y601722D02*
X801690Y592313D01*
X821832Y588658D02*
X822190Y588300D01*
X837690Y592293D02*
X837873Y592475D01*
X827190Y588300D02*
X827511Y588621D01*
X792281Y601722D02*
Y605535D01*
X832690Y592348D02*
X833832Y593490D01*
X809832Y595005D02*
Y602977D01*
X837690Y588800D02*
Y592293D01*
X818113Y604111D02*
Y605159D01*
X609600Y500380D02*
X622353Y487627D01*
X631243D02*
X633730Y485140D01*
X622353Y487627D02*
X631243D01*
X618490Y462280D02*
Y473710D01*
X604520Y487680D02*
X618490Y473710D01*
X595630Y487680D02*
X604520D01*
X689415Y510345D02*
X689610Y510540D01*
X680720Y501650D02*
X689415Y510345D01*
X669290Y485140D02*
X679450D01*
X680720Y486410D01*
Y501650D01*
X597485Y510345D02*
X689415D01*
X696042Y524510D02*
X706820D01*
X708090Y523240D01*
X597290Y510150D02*
X597485Y510345D01*
X707710Y501270D02*
X708090Y501650D01*
X693420Y501270D02*
X707710D01*
X652650Y524510D02*
X670560D01*
X765970Y603079D02*
X775970Y593079D01*
X750076Y603079D02*
X765970D01*
X764262Y612007D02*
X765517D01*
X749310Y603844D02*
X750076Y603079D01*
X756920Y619350D02*
X764262Y612007D01*
X765517D02*
X769840Y607685D01*
X749172Y595845D02*
X761395D01*
X780190Y577050D01*
X775970Y588575D02*
Y593079D01*
Y588575D02*
X781995Y582550D01*
X756920Y619350D02*
Y629350D01*
X753270Y588975D02*
X762115Y580130D01*
X769126D01*
X777205Y572050D01*
X753270Y575422D02*
X757839Y570853D01*
X770999D01*
X774802Y567050D01*
X591820Y487680D02*
X595630D01*
X589040Y490460D02*
Y496900D01*
Y490460D02*
X591820Y487680D01*
X607060Y500380D02*
X609600D01*
X597290Y505150D02*
X602290D01*
X607060Y500380D01*
X748424Y559880D02*
X762284D01*
X763114Y559050D02*
X775892D01*
X773146Y563050D02*
X778376D01*
X753966Y563880D02*
X772316D01*
X771972Y549050D02*
X773595Y547427D01*
X765473Y552979D02*
X767545Y555050D01*
X770890Y549050D02*
X771972D01*
X774802Y567050D02*
X785940D01*
X773595Y547427D02*
X779313D01*
X767545Y555050D02*
X774235D01*
X762284Y559880D02*
X763114Y559050D01*
X772316Y563880D02*
X773146Y563050D01*
X778376D02*
X779376Y562050D01*
X774235Y555050D02*
X777235Y552050D01*
X775892Y559050D02*
X777892Y557050D01*
X777205Y572050D02*
X785940D01*
X780190Y577050D02*
X785940D01*
X785440Y582550D02*
X785940Y582050D01*
X781995Y582550D02*
X785440D01*
X749455Y568390D02*
X753966Y563880D01*
X747724Y560580D02*
X748424Y559880D01*
X1010030Y316418D02*
Y317500D01*
X785440Y546550D02*
X785940Y547050D01*
X1008030Y314418D02*
X1010030Y316418D01*
X1008500Y291830D02*
X1009500Y290830D01*
X1008030Y306814D02*
Y314418D01*
Y306814D02*
X1008250Y306594D01*
Y300252D02*
X1008500Y300002D01*
Y291830D02*
Y300002D01*
X1008250Y300252D02*
Y306594D01*
X779313Y547427D02*
X780190Y546550D01*
X785440D01*
X1002030Y316418D02*
X1004030Y314418D01*
Y305157D02*
Y314418D01*
Y305157D02*
X1004250Y304937D01*
X1002030Y316418D02*
Y317500D01*
X1004250Y300252D02*
Y304937D01*
X1004000Y300002D02*
X1004250Y300252D01*
X1004000Y291830D02*
Y300002D01*
X1003000Y290830D02*
X1004000Y291830D01*
X777995Y542550D02*
X785440D01*
X777638Y542193D02*
X777995Y542550D01*
X775589Y542193D02*
X777638D01*
X785440Y542550D02*
X785940Y542050D01*
X774824Y541427D02*
X775589Y542193D01*
X707390Y703580D02*
Y725170D01*
X681990Y703580D02*
Y725170D01*
X752581Y552979D02*
X765473D01*
X751840Y553720D02*
X752581Y552979D01*
X779376Y562050D02*
X785940D01*
X777235Y552050D02*
X785940D01*
X777892Y557050D02*
X785940D01*
X785900Y527050D02*
X785940D01*
X785400Y509810D02*
Y526550D01*
X785900Y527050D01*
X784860Y509270D02*
X785400Y509810D01*
X817630Y502131D02*
Y506648D01*
X817015Y507263D02*
Y508920D01*
X817630Y502131D02*
X818395Y501365D01*
X825540Y495365D02*
X831880Y501705D01*
X763270Y492760D02*
X765875Y495365D01*
X817015Y507263D02*
X817630Y506648D01*
X765875Y495365D02*
X825540D01*
X817015Y508920D02*
X818690Y510595D01*
X774700Y391160D02*
X811530D01*
X811963Y390727D01*
X811530Y391160D02*
X827470D01*
X846008Y504190D02*
X847090D01*
X844400Y505798D02*
X846008Y504190D01*
X837190Y512820D02*
X844212Y505798D01*
X844400D01*
X847190Y512189D02*
Y520800D01*
X837973Y500607D02*
Y506380D01*
Y500607D02*
X838200Y500380D01*
X832190Y512163D02*
X837973Y506380D01*
X822690Y508462D02*
Y520300D01*
Y508462D02*
X825880Y505272D01*
Y504190D02*
Y505272D01*
X831880Y501705D02*
Y506720D01*
X827190Y511410D02*
X831880Y506720D01*
X832190Y512163D02*
Y520800D01*
X837190Y512820D02*
Y520800D01*
X668020Y289560D02*
Y311150D01*
X591820Y289560D02*
Y311150D01*
X617220Y289560D02*
Y311150D01*
X642620Y289560D02*
Y311150D01*
X693420Y289560D02*
Y311150D01*
X718820Y289560D02*
Y311150D01*
X785625Y597405D02*
X789435D01*
X784860Y598170D02*
X785625Y597405D01*
X789435D02*
X792190Y594650D01*
Y588300D02*
Y594650D01*
X791516Y606300D02*
X792281Y605535D01*
X805180Y607629D02*
Y608330D01*
X853440Y577050D02*
X853840Y577450D01*
X884910Y572490D02*
X890270D01*
X864470Y552050D02*
X884910Y572490D01*
X861301Y557050D02*
X866092Y561842D01*
Y562158D01*
X853440Y552050D02*
X864470D01*
X853440Y557050D02*
X861301D01*
X858431Y582050D02*
X861194Y584813D01*
X861207D01*
X944880Y621030D02*
Y635700D01*
Y621030D02*
X944880Y621030D01*
X925480Y635350D02*
X925830Y635700D01*
X847140Y594869D02*
X853559Y601287D01*
X853746D01*
X830113Y605233D02*
X830878Y604468D01*
X609600Y628650D02*
X609600Y628650D01*
Y608330D02*
X628080D01*
X609600Y608330D02*
X609600Y608330D01*
X652080D02*
X668020D01*
X1076960Y706120D02*
Y724620D01*
X1102360Y704850D02*
Y723350D01*
X899160Y703580D02*
Y722080D01*
X1026160Y704850D02*
Y723350D01*
X1000760Y704850D02*
Y723350D01*
X1051560Y706120D02*
Y724620D01*
X949960Y704850D02*
Y723350D01*
X975360Y703580D02*
Y722080D01*
X924560Y704850D02*
Y723350D01*
X873760Y703580D02*
Y722080D01*
X808990Y704850D02*
Y725170D01*
X758190Y703580D02*
Y725170D01*
X732790Y703580D02*
Y725170D01*
X1004570Y663120D02*
Y679450D01*
X944880Y659700D02*
Y675640D01*
X963930Y659700D02*
Y676910D01*
X944880Y675640D02*
X944880Y675640D01*
X963930Y676910D02*
X963930Y676910D01*
X832190Y588300D02*
X832690Y588800D01*
X845820Y601288D02*
Y602370D01*
X842190Y597658D02*
X845820Y601288D01*
X842190Y588300D02*
Y597658D01*
X847140Y588350D02*
Y594869D01*
Y588350D02*
X847190Y588300D01*
X853440Y582050D02*
X858431D01*
X887730Y525780D02*
X891540Y521970D01*
X903670D01*
X890270Y562890D02*
X896340D01*
X853440Y547050D02*
X867262D01*
X883102Y562890D01*
X890270D01*
X806690Y510595D02*
X807190Y510095D01*
X806690Y515565D02*
X807190Y516065D01*
Y520800D01*
X817690Y516565D02*
X818690Y515565D01*
X817690Y516565D02*
Y520300D01*
X818690Y510595D02*
Y515565D01*
X803910Y502920D02*
X807190Y506200D01*
Y510095D01*
X806690Y510595D02*
Y515565D01*
X817190Y520800D02*
X817690Y520300D01*
X822190Y520800D02*
X822690Y520300D01*
X812440Y513330D02*
X812690Y513080D01*
X812440Y513330D02*
Y520550D01*
X812190Y520800D02*
X812440Y520550D01*
X764540Y502920D02*
X803910D01*
X742950Y481330D02*
X764540Y502920D01*
X763270Y471740D02*
Y492760D01*
X732090Y481330D02*
X742950D01*
X827190Y511410D02*
Y520800D01*
X805180Y372110D02*
X827470D01*
X774700D02*
X805180D01*
X829310Y411480D02*
X843280D01*
X827470Y409640D02*
X829310Y411480D01*
X827470Y391160D02*
Y409640D01*
X821690Y348729D02*
X827470Y354509D01*
Y372110D01*
X821690Y345440D02*
Y348729D01*
X827470Y372110D02*
X827470Y372110D01*
X768350Y378460D02*
X774700Y372110D01*
X753345Y378460D02*
X768350D01*
X767000Y383460D02*
X774700Y391160D01*
X753345Y383460D02*
X767000D01*
X827470Y391160D02*
X827470Y391160D01*
X853440Y537050D02*
X867570D01*
X872490Y520700D02*
Y532130D01*
X867570Y537050D02*
X872490Y532130D01*
X872730Y542050D02*
X877570Y537210D01*
X853440Y542050D02*
X872730D01*
X911860Y494030D02*
Y501650D01*
X935560Y494030D02*
Y504620D01*
X924560Y494030D02*
Y501650D01*
X927670Y521970D02*
X928940Y523240D01*
X946150D01*
X906777Y473707D02*
Y483768D01*
X905510Y472440D02*
X906777Y473707D01*
Y483768D02*
X911860Y488852D01*
Y494030D01*
X930808Y472738D02*
Y483768D01*
X930510Y472440D02*
X930808Y472738D01*
X934818Y487778D02*
Y493288D01*
X930808Y483768D02*
X934818Y487778D01*
Y493288D02*
X935560Y494030D01*
X930910Y452120D02*
Y472040D01*
X930510Y472440D02*
X930910Y472040D01*
X921740Y450850D02*
X929640D01*
X930910Y452120D01*
X905510Y453292D02*
X906682Y452120D01*
X910870D01*
X905510Y453292D02*
Y472440D01*
X910870Y452120D02*
X912140Y450850D01*
X935990Y553720D02*
X943610D01*
X932180Y557530D02*
X935990Y553720D01*
X925830Y557530D02*
X932180D01*
X922330Y559330D02*
Y562300D01*
X909830Y579530D02*
X911928Y577432D01*
Y572702D02*
X922330Y562300D01*
X911928Y572702D02*
Y577432D01*
X924980Y538480D02*
Y556680D01*
X925830Y557530D01*
Y579530D02*
X926240Y579120D01*
X925830Y579530D02*
Y595630D01*
X915390Y596900D02*
X924560D01*
X925830Y595630D01*
X926240Y579120D02*
X934720D01*
X938110Y575730D01*
X943610D01*
X909830Y548130D02*
Y557530D01*
Y548130D02*
X913980Y543980D01*
Y538480D02*
Y543980D01*
X896340Y562890D02*
X901700Y557530D01*
X909830D01*
X890270Y572490D02*
Y593090D01*
X894080Y596900D02*
X905790D01*
X890270Y593090D02*
X894080Y596900D01*
X693420Y481330D02*
X708090D01*
X708090Y481330D01*
X652080Y525080D02*
X652650Y524510D01*
X985520Y402590D02*
Y414590D01*
X986220Y415290D01*
X1104900Y535240D02*
Y558800D01*
X1104900Y558800D01*
X1071440Y537650D02*
X1073850Y535240D01*
X1104900D01*
X1071440Y537650D02*
Y545037D01*
X1068840Y546100D02*
X1070378D01*
X1071440Y545037D01*
X570738Y506984D02*
X582676D01*
X582930Y506730D01*
X569040Y505286D02*
X570738Y506984D01*
X569040Y496900D02*
Y505286D01*
X582930Y506730D02*
X583695Y505965D01*
X584200Y497060D02*
Y500380D01*
X584040Y496900D02*
X584200Y497060D01*
X583695Y500885D02*
Y505965D01*
Y500885D02*
X584200Y500380D01*
X360630Y461060D02*
X360680Y461010D01*
X360630Y461060D02*
Y490070D01*
X411480Y462280D02*
X411530Y462330D01*
Y490070D02*
X411580Y490120D01*
X591820Y459740D02*
Y473140D01*
X411530Y462330D02*
Y490070D01*
X591820Y473140D02*
X592390Y473710D01*
X505460Y477520D02*
Y490650D01*
X360580Y490120D02*
X360630Y490070D01*
X505460Y490650D02*
X541020D01*
X664210Y369570D02*
X680720D01*
Y388620D01*
Y407670D01*
X708090Y523240D02*
Y542290D01*
X481330Y526200D02*
X488530D01*
X360580Y541120D02*
X360630Y541170D01*
X411530Y541170D02*
X411580Y541120D01*
X488530Y526200D02*
X488950Y525780D01*
X517740Y537210D02*
Y544410D01*
X518160Y544830D01*
X538480Y562610D02*
X546950D01*
X360630Y541170D02*
Y568910D01*
X538480Y562610D02*
X538480Y562610D01*
X411530Y541170D02*
Y568910D01*
X360630Y568910D02*
X360680Y568960D01*
X411480D02*
X411530Y568910D01*
X652080Y551180D02*
Y570230D01*
Y525080D02*
Y551180D01*
X585890Y562610D02*
X594360D01*
X594360Y562610D01*
X708090Y542290D02*
Y561340D01*
X652080Y570230D02*
Y589280D01*
X588520Y596390D02*
X589280Y595630D01*
X578260Y596390D02*
X588520D01*
X777240Y653350D02*
X777240Y653350D01*
X830580Y433070D02*
Y447740D01*
X849630D01*
X811530D02*
X830580D01*
X882650Y270510D02*
Y285750D01*
X830580Y433070D02*
X830580Y433070D01*
X842190Y520800D02*
Y531950D01*
X842010Y520620D02*
X842190Y520800D01*
X980440Y290830D02*
X990000D01*
X1010220Y457200D02*
Y476250D01*
X1074420Y381000D02*
X1106170D01*
X1010220Y457200D02*
X1029970D01*
X1010220Y476250D02*
X1028700D01*
X1029970Y457200D02*
X1029970Y457200D01*
X1028700Y476250D02*
X1032510Y480060D01*
X1031810Y509270D02*
X1032510D01*
X1031810Y528320D02*
X1032510Y527620D01*
X1104900Y494030D02*
X1104900Y494030D01*
X1032510Y509270D02*
X1102930D01*
X1104900Y511240D01*
Y494030D02*
Y511240D01*
X840740Y533400D02*
X842190Y531950D01*
X785940Y532050D02*
X796210D01*
X797560Y533400D01*
X842570Y562050D02*
X853440D01*
X842010Y562610D02*
X842570Y562050D01*
X797190Y578220D02*
Y588300D01*
X777240Y653350D02*
Y679450D01*
X783590Y725170D02*
Y741680D01*
X797190Y588300D02*
X797560Y588670D01*
X797190Y578220D02*
X798830Y576580D01*
X1005840Y571500D02*
X1022350D01*
X1068840Y558800D02*
Y571500D01*
X1072440D01*
X1078790Y565150D02*
X1084580D01*
X1072440Y571500D02*
X1078790Y565150D01*
X925830Y635700D02*
X944880D01*
X963930D01*
X1123950Y673100D02*
X1140460D01*
X1141730Y674370D01*
X583540Y497400D02*
X584040Y496900D01*
X551434Y505460D02*
X551589Y505305D01*
X560635D01*
X560790Y505150D01*
Y510150D01*
X597290Y520150D02*
X607780D01*
X608330Y520700D01*
X609600Y551180D02*
X628080D01*
X609600Y551180D02*
X609600Y551180D01*
Y628650D02*
X628080D01*
Y551180D02*
X628650Y551750D01*
X665480Y426720D02*
X680720D01*
X665480Y447040D02*
X680720D01*
X652080Y628650D02*
X670560D01*
X670560Y628650D01*
X690880Y582930D02*
X708090D01*
X690880Y582930D02*
X690880Y582930D01*
X739840Y653350D02*
X756920D01*
X796290D02*
Y671830D01*
X796290Y671830D02*
X796290Y671830D01*
X817880Y671830D02*
X817880Y671830D01*
Y653350D02*
Y671830D01*
X925830Y659700D02*
Y675640D01*
X925830Y675640D01*
X1054100Y662940D02*
Y679450D01*
X1120010Y582800D02*
X1120140Y582930D01*
X1104900Y582800D02*
X1120010D01*
X850900Y332740D02*
Y346710D01*
X781050Y285750D02*
Y306070D01*
X850900Y371540D02*
X851470Y372110D01*
X850900Y346710D02*
Y371540D01*
X851470Y372110D02*
Y391160D01*
X847290Y520700D02*
X852268D01*
X853440Y521872D01*
Y527050D01*
X847190Y520800D02*
X847290Y520700D01*
X796290Y653350D02*
X817880D01*
X1007810Y509270D02*
Y528210D01*
X1008380Y496570D02*
Y508700D01*
X1007810Y509270D02*
X1008380Y508700D01*
X969110Y507900D02*
X980210D01*
X972920Y457100D02*
X986120D01*
X980210Y507900D02*
X980440Y508130D01*
X961490Y434240D02*
X986120D01*
X960820Y449010D02*
X961390Y449580D01*
X960820Y434910D02*
Y449010D01*
Y434910D02*
X961390Y434340D01*
X1005940Y558700D02*
X1022250D01*
X1056740Y584100D02*
X1068740D01*
X972920Y476150D02*
X986120D01*
X1016000Y290830D02*
Y306070D01*
D14*
X980440Y532130D02*
Y544830D01*
Y546100D01*
X972820Y553720D02*
X980440Y546100D01*
X972820Y553720D02*
Y567690D01*
X981710Y546100D02*
X1005840D01*
X980440Y544830D02*
X981710Y546100D01*
D15*
X617220Y524510D02*
X628650D01*
X613410Y528320D02*
X617220Y524510D01*
X602620Y525150D02*
X605790Y528320D01*
X613410D01*
X597290Y525150D02*
X602620D01*
X728275Y375920D02*
X730815Y373380D01*
X735015D01*
X727710Y375920D02*
X728275D01*
X730815Y378460D01*
X735095D01*
X705990Y389890D02*
X720955D01*
X736660Y355660D02*
Y366775D01*
X720955Y389890D02*
X727385Y383460D01*
X735095D01*
D22*
X652080Y551180D02*
D03*
X628080D02*
D03*
X652080Y570230D02*
D03*
X628080D02*
D03*
X652080Y589280D02*
D03*
X628080D02*
D03*
Y608330D02*
D03*
X652080D02*
D03*
X628080Y628650D02*
D03*
X652080D02*
D03*
X708090Y582930D02*
D03*
X732090D02*
D03*
X827470Y391160D02*
D03*
X851470D02*
D03*
X827470Y372110D02*
D03*
X851470D02*
D03*
X680720Y447040D02*
D03*
X704720D02*
D03*
X568390Y473710D02*
D03*
X592390D02*
D03*
X1010220Y434340D02*
D03*
X986220D02*
D03*
X708090Y501650D02*
D03*
X732090D02*
D03*
X680720Y426720D02*
D03*
X704720D02*
D03*
X1010220Y415290D02*
D03*
X986220D02*
D03*
Y457200D02*
D03*
X1010220D02*
D03*
X986220Y476250D02*
D03*
X1010220D02*
D03*
X1007810Y509270D02*
D03*
X1031810D02*
D03*
Y528320D02*
D03*
X1007810D02*
D03*
X903670Y521970D02*
D03*
X927670D02*
D03*
X732090Y523240D02*
D03*
X708090D02*
D03*
X732090Y542290D02*
D03*
X708090D02*
D03*
X732090Y561340D02*
D03*
X708090D02*
D03*
Y481330D02*
D03*
X732090D02*
D03*
X704720Y407670D02*
D03*
X680720D02*
D03*
X704720Y388620D02*
D03*
X680720D02*
D03*
X704720Y369570D02*
D03*
X680720D02*
D03*
X628650Y524510D02*
D03*
X652650D02*
D03*
D23*
X1003000Y290830D02*
D03*
X1009500D02*
D03*
X990000D02*
D03*
X996500D02*
D03*
X1016000D02*
D03*
D24*
X785940Y542050D02*
D03*
Y547050D02*
D03*
X853440Y567050D02*
D03*
Y527050D02*
D03*
Y532050D02*
D03*
Y537050D02*
D03*
Y542050D02*
D03*
Y547050D02*
D03*
Y552050D02*
D03*
Y562050D02*
D03*
Y572050D02*
D03*
Y577050D02*
D03*
Y582050D02*
D03*
X785940D02*
D03*
Y577050D02*
D03*
Y572050D02*
D03*
Y567050D02*
D03*
Y562050D02*
D03*
Y557050D02*
D03*
Y552050D02*
D03*
Y537050D02*
D03*
Y532050D02*
D03*
Y527050D02*
D03*
X853440Y557050D02*
D03*
D25*
X597290Y505150D02*
D03*
Y510150D02*
D03*
Y515150D02*
D03*
Y520150D02*
D03*
Y525150D02*
D03*
X560790D02*
D03*
Y520150D02*
D03*
Y515150D02*
D03*
Y510150D02*
D03*
Y505150D02*
D03*
D26*
X589040Y533400D02*
D03*
X584040D02*
D03*
X579040D02*
D03*
X574040D02*
D03*
X569040D02*
D03*
Y496900D02*
D03*
X574040D02*
D03*
X579040D02*
D03*
X584040D02*
D03*
X589040D02*
D03*
D27*
X847190Y588300D02*
D03*
X842190D02*
D03*
X837190D02*
D03*
X832190D02*
D03*
X827190D02*
D03*
X822190D02*
D03*
X817190D02*
D03*
X812190D02*
D03*
X807190D02*
D03*
X802190D02*
D03*
X797190D02*
D03*
X792190D02*
D03*
Y520800D02*
D03*
X797190D02*
D03*
X802190D02*
D03*
X807190D02*
D03*
X812190D02*
D03*
X817190D02*
D03*
X822190D02*
D03*
X827190D02*
D03*
X832190D02*
D03*
X837190D02*
D03*
X842190D02*
D03*
X847190D02*
D03*
D28*
X819658Y554482D02*
D03*
D29*
X1005840Y584200D02*
D03*
D30*
Y571500D02*
D03*
Y558800D02*
D03*
Y546100D02*
D03*
X1068840Y584200D02*
D03*
Y571500D02*
D03*
Y558800D02*
D03*
Y546100D02*
D03*
D31*
X1104900Y558800D02*
D03*
Y582800D02*
D03*
X963930Y635700D02*
D03*
Y659700D02*
D03*
X980440Y508130D02*
D03*
Y532130D02*
D03*
X1104900Y511240D02*
D03*
Y535240D02*
D03*
X789940Y447740D02*
D03*
Y471740D02*
D03*
X817880Y653350D02*
D03*
Y629350D02*
D03*
X763270Y447740D02*
D03*
Y471740D02*
D03*
X871220Y447740D02*
D03*
Y471740D02*
D03*
X796290Y653350D02*
D03*
Y629350D02*
D03*
X811530Y471740D02*
D03*
Y447740D02*
D03*
X830580Y471740D02*
D03*
Y447740D02*
D03*
X849630Y471740D02*
D03*
Y447740D02*
D03*
X756920Y653350D02*
D03*
Y629350D02*
D03*
X777240D02*
D03*
Y653350D02*
D03*
X925830Y635700D02*
D03*
Y659700D02*
D03*
X944880Y635700D02*
D03*
Y659700D02*
D03*
D32*
X735095Y383460D02*
D03*
Y378460D02*
D03*
Y373460D02*
D03*
X753345D02*
D03*
Y378460D02*
D03*
Y383460D02*
D03*
D33*
X736720Y366835D02*
D03*
X741720D02*
D03*
X746720D02*
D03*
X751720D02*
D03*
Y390085D02*
D03*
X746720D02*
D03*
X741720D02*
D03*
X736720D02*
D03*
D34*
X925830Y557530D02*
D03*
X909830Y579530D02*
D03*
X925830D02*
D03*
D35*
X909830Y557530D02*
D03*
D36*
X556260Y580390D02*
D03*
X578260Y596390D02*
D03*
Y580390D02*
D03*
D37*
X556260Y596390D02*
D03*
D38*
X930510Y472440D02*
D03*
X905510D02*
D03*
D39*
X1004570Y622120D02*
D03*
Y663120D02*
D03*
D65*
X517740Y501650D02*
D03*
X528740D02*
D03*
X506310Y514350D02*
D03*
X517310D02*
D03*
X482180Y502920D02*
D03*
X493180D02*
D03*
X900860Y494030D02*
D03*
X911860D02*
D03*
X924560D02*
D03*
X935560D02*
D03*
X924980Y538480D02*
D03*
X913980D02*
D03*
X469050Y514350D02*
D03*
X458050D02*
D03*
X528740Y525780D02*
D03*
X517740D02*
D03*
Y537210D02*
D03*
X528740D02*
D03*
X546950Y562610D02*
D03*
X557950D02*
D03*
X585890Y562610D02*
D03*
X574890D02*
D03*
D66*
X541020Y525360D02*
D03*
Y536360D02*
D03*
X943610Y564730D02*
D03*
Y575730D02*
D03*
X541020Y501650D02*
D03*
Y490650D02*
D03*
X505460Y501650D02*
D03*
Y490650D02*
D03*
X481330Y526200D02*
D03*
Y515200D02*
D03*
D79*
X1054100Y662940D02*
D03*
X1135380Y558800D02*
D03*
X961390Y434340D02*
D03*
X972820Y567690D02*
D03*
X1123950Y673100D02*
D03*
X850900Y346710D02*
D03*
X732790Y604520D02*
D03*
X669290Y485140D02*
D03*
X618490Y462280D02*
D03*
X633730Y485140D02*
D03*
X842010Y629920D02*
D03*
X843280Y411480D02*
D03*
X821690Y345440D02*
D03*
X887730Y621030D02*
D03*
X911365Y424955D02*
D03*
X704850Y341630D02*
D03*
X628650Y657860D02*
D03*
X549910Y646430D02*
D03*
D80*
X890270Y572490D02*
D03*
Y562890D02*
D03*
D81*
X921740Y450850D02*
D03*
X912140D02*
D03*
X905790Y596900D02*
D03*
X915390D02*
D03*
X572210Y614680D02*
D03*
X562610D02*
D03*
D82*
X387350Y514350D02*
X458050D01*
X386080Y515620D02*
X387350Y514350D01*
D83*
X720090Y341630D02*
X726755Y348295D01*
X729295D02*
X736600Y355600D01*
X726755Y348295D02*
X729295D01*
X704720Y426720D02*
Y447040D01*
Y407670D02*
Y426720D01*
Y388620D02*
Y407670D01*
Y369570D02*
Y388620D01*
X871220Y488950D02*
Y504190D01*
X847190Y512189D02*
X863221D01*
X871220Y504190D01*
X732090Y501650D02*
X745490D01*
X704850Y341630D02*
X720090D01*
X704720Y388620D02*
X705990Y389890D01*
X736600Y355600D02*
X736660Y355660D01*
X704720Y369570D02*
X704850Y369440D01*
Y341630D02*
Y369440D01*
X704720Y447040D02*
X720090D01*
X721360Y448310D01*
X732790Y582930D02*
X748030D01*
X871220Y471740D02*
Y488950D01*
X849630Y471740D02*
X871220D01*
X830580D02*
X849630D01*
X811530D02*
X830580D01*
X789940D02*
X811530D01*
D84*
X854335Y619760D02*
X855980D01*
X844175Y629920D02*
X854335Y619760D01*
X777810Y629920D02*
X844175D01*
X777240Y629350D02*
X777810Y629920D01*
D85*
X732790Y582930D02*
Y604520D01*
X732090Y561340D02*
Y582930D01*
Y542290D02*
Y561340D01*
Y523240D02*
Y542290D01*
Y501650D02*
Y523240D01*
Y501650D02*
X732090Y501650D01*
X732090Y582930D02*
X732790D01*
X748030D02*
X748030Y582930D01*
D86*
X1074420Y431800D02*
X1108710D01*
X1010220Y415290D02*
Y434340D01*
Y400477D02*
Y415290D01*
D87*
X386080Y515620D02*
D03*
D88*
X360580Y490120D02*
D03*
Y541120D02*
D03*
X411580Y490120D02*
D03*
Y541120D02*
D03*
D89*
X808990Y725170D02*
D03*
X783590D02*
D03*
X758190D02*
D03*
X732790D02*
D03*
X707390D02*
D03*
X681990D02*
D03*
X781050Y285750D02*
D03*
D90*
X718820Y289560D02*
D03*
X693420D02*
D03*
X668020D02*
D03*
X642620D02*
D03*
X617220D02*
D03*
X591820D02*
D03*
X1102360Y725170D02*
D03*
X1076960D02*
D03*
X1051560D02*
D03*
X1026160D02*
D03*
X1000760D02*
D03*
X975360D02*
D03*
X949960D02*
D03*
X924560D02*
D03*
X899160D02*
D03*
X873760D02*
D03*
D91*
X882650Y285750D02*
D03*
X857250D02*
D03*
X831850D02*
D03*
X806450D02*
D03*
X908050D02*
D03*
D92*
X1074420Y381000D02*
D03*
D93*
Y431800D02*
D03*
D94*
X983000Y277830D02*
D03*
X1023000D02*
D03*
D95*
X967250Y308080D02*
D03*
Y273580D02*
D03*
X1038750D02*
D03*
Y308080D02*
D03*
D96*
X878840Y577850D02*
D03*
X789940Y431800D02*
D03*
Y487680D02*
D03*
X871220Y431450D02*
D03*
X788670Y360680D02*
D03*
X751490Y447740D02*
D03*
X774700Y360680D02*
D03*
X893730Y497840D02*
D03*
X906780Y346710D02*
D03*
X796290Y511810D02*
D03*
X763270Y529590D02*
D03*
X775970Y694690D02*
D03*
X855980Y619760D02*
D03*
X857250Y308610D02*
D03*
X579861Y488765D02*
D03*
X568960Y552450D02*
D03*
X544830Y582930D02*
D03*
X613410Y589280D02*
D03*
X614680Y570230D02*
D03*
X551180Y528320D02*
D03*
X900430Y582930D02*
D03*
X815832Y597491D02*
D03*
X803832Y598657D02*
D03*
X818113Y605159D02*
D03*
X827832Y595975D02*
D03*
X589280Y595630D02*
D03*
X518160Y544830D02*
D03*
X538480Y562610D02*
D03*
X594360Y562610D02*
D03*
X689610Y510540D02*
D03*
X696042Y524510D02*
D03*
X693420Y501270D02*
D03*
X670560Y524510D02*
D03*
X749310Y603844D02*
D03*
X769840Y607685D02*
D03*
X749172Y595845D02*
D03*
X753270Y588975D02*
D03*
X753270Y575422D02*
D03*
X595630Y487680D02*
D03*
X609600Y500380D02*
D03*
X588010Y544830D02*
D03*
X770890Y549050D02*
D03*
X1010030Y317500D02*
D03*
X1002030D02*
D03*
X774824Y541427D02*
D03*
X681990Y703580D02*
D03*
X707390D02*
D03*
X747724Y560580D02*
D03*
X749455Y568390D02*
D03*
X751840Y553720D02*
D03*
X745490Y501650D02*
D03*
X784860Y509270D02*
D03*
X818395Y501365D02*
D03*
X811963Y390727D02*
D03*
X720090Y341630D02*
D03*
X847090Y504190D02*
D03*
X838200Y500380D02*
D03*
X825880Y504190D02*
D03*
X668020Y311150D02*
D03*
X591820D02*
D03*
X617220D02*
D03*
X642620D02*
D03*
X693420D02*
D03*
X718820D02*
D03*
X784860Y598170D02*
D03*
X791516Y606300D02*
D03*
X805180Y608330D02*
D03*
X869950Y570230D02*
D03*
X866092Y562158D02*
D03*
X916015Y622650D02*
D03*
X861207Y584813D02*
D03*
X944880Y621030D02*
D03*
X853746Y601287D02*
D03*
X830113Y605233D02*
D03*
X668020Y608330D02*
D03*
X609600Y608330D02*
D03*
X1076960Y706120D02*
D03*
X873760Y703580D02*
D03*
X899160D02*
D03*
X924560Y704850D02*
D03*
X949960D02*
D03*
X975360Y703580D02*
D03*
X1000760Y704850D02*
D03*
X1026160D02*
D03*
X1051560Y706120D02*
D03*
X1102360Y704850D02*
D03*
X808990D02*
D03*
X732790Y703580D02*
D03*
X758190D02*
D03*
X1004570Y679450D02*
D03*
X944880Y675640D02*
D03*
X963930Y676910D02*
D03*
X837873Y603288D02*
D03*
X845820Y602370D02*
D03*
X887730Y525780D02*
D03*
X812690Y513080D02*
D03*
X805180Y372110D02*
D03*
X924560Y501650D02*
D03*
X943610Y553720D02*
D03*
X693420Y481330D02*
D03*
X985520Y402590D02*
D03*
X360680Y461010D02*
D03*
X411480Y462280D02*
D03*
X664210Y369570D02*
D03*
X591820Y459740D02*
D03*
X505460Y477520D02*
D03*
X582930Y506730D02*
D03*
X727710Y375920D02*
D03*
X488950Y525780D02*
D03*
X360680Y568960D02*
D03*
X411480D02*
D03*
X777240Y679450D02*
D03*
X830580Y433070D02*
D03*
X882650Y270510D02*
D03*
X980440Y290830D02*
D03*
X946150Y523240D02*
D03*
X1106170Y381000D02*
D03*
X1029970Y457200D02*
D03*
X1104900Y494030D02*
D03*
X797560Y533400D02*
D03*
X840740D02*
D03*
X842010Y562610D02*
D03*
X798830Y576580D02*
D03*
X783590Y741680D02*
D03*
X1022350Y571500D02*
D03*
X1084580Y565150D02*
D03*
X1141730Y674370D02*
D03*
X551434Y505460D02*
D03*
X608330Y520700D02*
D03*
X609600Y551180D02*
D03*
X609600Y628650D02*
D03*
X1120140Y582930D02*
D03*
X781050Y306070D02*
D03*
X665480Y426720D02*
D03*
Y447040D02*
D03*
X670560Y628650D02*
D03*
X690880Y582930D02*
D03*
X739840Y653350D02*
D03*
X795020Y674370D02*
D03*
X817880Y671830D02*
D03*
X925830Y675640D02*
D03*
X1054100Y679450D02*
D03*
X736600Y355600D02*
D03*
X721360Y448310D02*
D03*
X748030Y582930D02*
D03*
X850900Y332740D02*
D03*
X871220Y488950D02*
D03*
X1022350Y558800D02*
D03*
X1056640Y584200D02*
D03*
X1008380Y496570D02*
D03*
X961390Y449580D02*
D03*
X972820Y457200D02*
D03*
Y476250D02*
D03*
X969010Y508000D02*
D03*
X1026160Y364490D02*
D03*
X1016000Y306070D02*
D03*
X1010220Y400477D02*
D03*
X1108710Y431800D02*
D03*
M02*
