G04*
G04 #@! TF.GenerationSoftware,Altium Limited,Altium Designer,22.11.1 (43)*
G04*
G04 Layer_Color=8421504*
%FSLAX44Y44*%
%MOMM*%
G71*
G04*
G04 #@! TF.SameCoordinates,6325C8D2-15E4-4679-A439-48E371F70F26*
G04*
G04*
G04 #@! TF.FilePolarity,Positive*
G04*
G01*
G75*
%ADD21C,0.1000*%
%ADD22R,1.4000X1.2500*%
%ADD23R,0.4000X1.8500*%
%ADD24R,0.5500X0.3000*%
%ADD25R,0.5000X0.3000*%
%ADD26R,0.3000X0.5000*%
%ADD27R,0.3000X0.5500*%
%ADD28R,5.2000X5.2000*%
%ADD29R,1.1500X0.4300*%
%ADD30O,1.1500X0.4300*%
%ADD31R,1.2500X1.4000*%
%ADD32R,0.4750X0.2500*%
%ADD33R,0.2500X0.4750*%
%ADD34R,0.9000X1.0000*%
%ADD35R,0.9000X1.0000*%
%ADD36R,1.0000X0.9000*%
%ADD37R,1.0000X0.9000*%
%ADD38R,1.1000X1.9000*%
%ADD39R,4.0000X2.0000*%
%ADD40R,0.5200X0.4700*%
%ADD41R,0.4700X0.5200*%
%ADD42R,0.4200X0.4200*%
%ADD43R,0.4200X0.4200*%
D21*
X411580Y490120D02*
Y541120D01*
X404580D02*
X411580D01*
D22*
X652080Y551180D02*
D03*
X628080D02*
D03*
X652080Y570230D02*
D03*
X628080D02*
D03*
X652080Y589280D02*
D03*
X628080D02*
D03*
Y608330D02*
D03*
X652080D02*
D03*
X628080Y628650D02*
D03*
X652080D02*
D03*
X708090Y582930D02*
D03*
X732090D02*
D03*
X827470Y391160D02*
D03*
X851470D02*
D03*
X827470Y372110D02*
D03*
X851470D02*
D03*
X680720Y447040D02*
D03*
X704720D02*
D03*
X568390Y473710D02*
D03*
X592390D02*
D03*
X1010220Y434340D02*
D03*
X986220D02*
D03*
X708090Y501650D02*
D03*
X732090D02*
D03*
X680720Y426720D02*
D03*
X704720D02*
D03*
X1010220Y415290D02*
D03*
X986220D02*
D03*
Y457200D02*
D03*
X1010220D02*
D03*
X986220Y476250D02*
D03*
X1010220D02*
D03*
X1007810Y509270D02*
D03*
X1031810D02*
D03*
Y528320D02*
D03*
X1007810D02*
D03*
X903670Y521970D02*
D03*
X927670D02*
D03*
X732090Y523240D02*
D03*
X708090D02*
D03*
X732090Y542290D02*
D03*
X708090D02*
D03*
X732090Y561340D02*
D03*
X708090D02*
D03*
Y481330D02*
D03*
X732090D02*
D03*
X704720Y407670D02*
D03*
X680720D02*
D03*
X704720Y388620D02*
D03*
X680720D02*
D03*
X704720Y369570D02*
D03*
X680720D02*
D03*
X628650Y524510D02*
D03*
X652650D02*
D03*
D23*
X1003000Y290830D02*
D03*
X1009500D02*
D03*
X990000D02*
D03*
X996500D02*
D03*
X1016000D02*
D03*
D24*
X785940Y542050D02*
D03*
Y547050D02*
D03*
X853440Y567050D02*
D03*
Y527050D02*
D03*
Y532050D02*
D03*
Y537050D02*
D03*
Y542050D02*
D03*
Y547050D02*
D03*
Y552050D02*
D03*
Y562050D02*
D03*
Y572050D02*
D03*
Y577050D02*
D03*
Y582050D02*
D03*
X785940D02*
D03*
Y577050D02*
D03*
Y572050D02*
D03*
Y567050D02*
D03*
Y562050D02*
D03*
Y557050D02*
D03*
Y552050D02*
D03*
Y537050D02*
D03*
Y532050D02*
D03*
Y527050D02*
D03*
X853440Y557050D02*
D03*
D25*
X597290Y505150D02*
D03*
Y510150D02*
D03*
Y515150D02*
D03*
Y520150D02*
D03*
Y525150D02*
D03*
X560790D02*
D03*
Y520150D02*
D03*
Y515150D02*
D03*
Y510150D02*
D03*
Y505150D02*
D03*
D26*
X589040Y533400D02*
D03*
X584040D02*
D03*
X579040D02*
D03*
X574040D02*
D03*
X569040D02*
D03*
Y496900D02*
D03*
X574040D02*
D03*
X579040D02*
D03*
X584040D02*
D03*
X589040D02*
D03*
D27*
X847190Y588300D02*
D03*
X842190D02*
D03*
X837190D02*
D03*
X832190D02*
D03*
X827190D02*
D03*
X822190D02*
D03*
X817190D02*
D03*
X812190D02*
D03*
X807190D02*
D03*
X802190D02*
D03*
X797190D02*
D03*
X792190D02*
D03*
Y520800D02*
D03*
X797190D02*
D03*
X802190D02*
D03*
X807190D02*
D03*
X812190D02*
D03*
X817190D02*
D03*
X822190D02*
D03*
X827190D02*
D03*
X832190D02*
D03*
X837190D02*
D03*
X842190D02*
D03*
X847190D02*
D03*
D28*
X819658Y554482D02*
D03*
D29*
X1005840Y584200D02*
D03*
D30*
Y571500D02*
D03*
Y558800D02*
D03*
Y546100D02*
D03*
X1068840Y584200D02*
D03*
Y571500D02*
D03*
Y558800D02*
D03*
Y546100D02*
D03*
D31*
X1104900Y558800D02*
D03*
Y582800D02*
D03*
X963930Y635700D02*
D03*
Y659700D02*
D03*
X980440Y508130D02*
D03*
Y532130D02*
D03*
X1104900Y511240D02*
D03*
Y535240D02*
D03*
X789940Y447740D02*
D03*
Y471740D02*
D03*
X817880Y653350D02*
D03*
Y629350D02*
D03*
X763270Y447740D02*
D03*
Y471740D02*
D03*
X871220Y447740D02*
D03*
Y471740D02*
D03*
X796290Y653350D02*
D03*
Y629350D02*
D03*
X811530Y471740D02*
D03*
Y447740D02*
D03*
X830580Y471740D02*
D03*
Y447740D02*
D03*
X849630Y471740D02*
D03*
Y447740D02*
D03*
X756920Y653350D02*
D03*
Y629350D02*
D03*
X777240D02*
D03*
Y653350D02*
D03*
X925830Y635700D02*
D03*
Y659700D02*
D03*
X944880Y635700D02*
D03*
Y659700D02*
D03*
D32*
X735095Y383460D02*
D03*
Y378460D02*
D03*
Y373460D02*
D03*
X753345D02*
D03*
Y378460D02*
D03*
Y383460D02*
D03*
D33*
X736720Y366835D02*
D03*
X741720D02*
D03*
X746720D02*
D03*
X751720D02*
D03*
Y390085D02*
D03*
X746720D02*
D03*
X741720D02*
D03*
X736720D02*
D03*
D34*
X925830Y557530D02*
D03*
X909830Y579530D02*
D03*
X925830D02*
D03*
D35*
X909830Y557530D02*
D03*
D36*
X556260Y580390D02*
D03*
X578260Y596390D02*
D03*
Y580390D02*
D03*
D37*
X556260Y596390D02*
D03*
D38*
X930510Y472440D02*
D03*
X905510D02*
D03*
D39*
X1004570Y622120D02*
D03*
Y663120D02*
D03*
D40*
X890270Y572490D02*
D03*
Y562890D02*
D03*
D41*
X921740Y450850D02*
D03*
X912140D02*
D03*
X905790Y596900D02*
D03*
X915390D02*
D03*
X572210Y614680D02*
D03*
X562610D02*
D03*
D42*
X517740Y501650D02*
D03*
X528740D02*
D03*
X506310Y514350D02*
D03*
X517310D02*
D03*
X482180Y502920D02*
D03*
X493180D02*
D03*
X900860Y494030D02*
D03*
X911860D02*
D03*
X924560D02*
D03*
X935560D02*
D03*
X924980Y538480D02*
D03*
X913980D02*
D03*
X469050Y514350D02*
D03*
X458050D02*
D03*
X528740Y525780D02*
D03*
X517740D02*
D03*
Y537210D02*
D03*
X528740D02*
D03*
X546950Y562610D02*
D03*
X557950D02*
D03*
X585890Y562610D02*
D03*
X574890D02*
D03*
D43*
X541020Y525360D02*
D03*
Y536360D02*
D03*
X943610Y564730D02*
D03*
Y575730D02*
D03*
X541020Y501650D02*
D03*
Y490650D02*
D03*
X505460Y501650D02*
D03*
Y490650D02*
D03*
X481330Y526200D02*
D03*
Y515200D02*
D03*
M02*
