G04*
G04 #@! TF.GenerationSoftware,Altium Limited,Altium Designer,22.11.1 (43)*
G04*
G04 Layer_Physical_Order=4*
G04 Layer_Color=16711680*
%FSLAX44Y44*%
%MOMM*%
G71*
G04*
G04 #@! TF.SameCoordinates,C070AB6A-2F18-4790-B33B-C4DBF4FCC7D7*
G04*
G04*
G04 #@! TF.FilePolarity,Positive*
G04*
G01*
G75*
%ADD13C,0.2000*%
%ADD81C,1.5000*%
%ADD84C,0.2206*%
%ADD90C,2.1000*%
%ADD91C,2.2000*%
%ADD92R,1.7000X1.7000*%
%ADD93R,1.8000X1.8000*%
%ADD94C,1.7000*%
%ADD95R,3.8100X3.8100*%
%ADD96C,3.8100*%
%ADD97C,0.4000*%
G04:AMPARAMS|DCode=98|XSize=0.9mm|YSize=0.3mm|CornerRadius=0.075mm|HoleSize=0mm|Usage=FLASHONLY|Rotation=270.000|XOffset=0mm|YOffset=0mm|HoleType=Round|Shape=RoundedRectangle|*
%AMROUNDEDRECTD98*
21,1,0.9000,0.1500,0,0,270.0*
21,1,0.7500,0.3000,0,0,270.0*
1,1,0.1500,-0.0750,-0.3750*
1,1,0.1500,-0.0750,0.3750*
1,1,0.1500,0.0750,0.3750*
1,1,0.1500,0.0750,-0.3750*
%
%ADD98ROUNDEDRECTD98*%
%ADD99C,0.6000*%
D13*
X887730Y487680D02*
Y525780D01*
Y540520D01*
X906780Y346710D02*
Y468630D01*
X887730Y487680D02*
X906780Y468630D01*
X879460Y577230D02*
X885840D01*
X937260Y628650D01*
X878840Y577850D02*
X879460Y577230D01*
X796290Y506730D02*
Y511810D01*
X783940Y425100D02*
Y494380D01*
X796290Y506730D01*
X783940Y425100D02*
X788670Y420370D01*
Y360680D02*
Y420370D01*
X843630Y459390D02*
X848360Y454660D01*
Y370840D02*
Y454660D01*
X807720Y330200D02*
X848360Y370840D01*
X838200Y366337D02*
Y500380D01*
X806162Y334298D02*
X838200Y366337D01*
X811963Y391593D02*
X824230Y403860D01*
Y489815D02*
X825880Y491465D01*
X824230Y403860D02*
Y489815D01*
X818395Y405645D02*
Y501365D01*
X805180Y392430D02*
X818395Y405645D01*
X797560Y348802D02*
Y492355D01*
X674020Y347630D02*
X796388D01*
X797560Y348802D01*
Y492355D02*
X812285Y507080D01*
X668020Y341630D02*
X674020Y347630D01*
X718820Y323850D02*
X725170Y330200D01*
X697518Y334298D02*
X806162D01*
X725170Y330200D02*
X807720D01*
X692978Y329758D02*
X697518Y334298D01*
X750570Y508865D02*
X755300Y504135D01*
X741680Y393700D02*
X757490Y409510D01*
X755300Y452415D02*
X757490Y450225D01*
X745840Y513595D02*
X750570Y508865D01*
X755300Y452415D02*
Y504135D01*
X757490Y409510D02*
Y450225D01*
X757368Y365760D02*
X761490Y369882D01*
X759300Y454072D02*
Y505792D01*
X763300Y457264D02*
Y529560D01*
X765490Y383860D02*
Y455074D01*
X759300Y454072D02*
X761490Y451882D01*
Y369882D02*
Y451882D01*
X763270Y529590D02*
X763300Y529560D01*
Y457264D02*
X765490Y455074D01*
Y383860D02*
X774700Y374650D01*
X751840Y513252D02*
X759300Y505792D01*
X669290Y365760D02*
X757368D01*
X736600Y420272D02*
Y559665D01*
X731618Y415290D02*
X736600Y420272D01*
Y559665D02*
X744560Y567625D01*
X774700Y360680D02*
Y374650D01*
X718820Y311150D02*
Y323850D01*
X1016000Y364490D02*
X1026160D01*
X732790Y697230D02*
Y703580D01*
Y697230D02*
X735330Y694690D01*
X775970D01*
X845820Y619760D02*
X859790Y633730D01*
X1050290D01*
X845820Y602370D02*
Y619760D01*
X837873Y603288D02*
Y619433D01*
X853820Y641730D02*
X1024988D01*
X856170Y637730D02*
X1039050D01*
X830113Y605233D02*
Y618023D01*
X853820Y641730D01*
X837873Y619433D02*
X856170Y637730D01*
X824113Y600476D02*
Y620913D01*
X848930Y645730D01*
X1000060D01*
X521970Y565150D02*
X542290Y544830D01*
X588010D01*
X662940D01*
X504190Y565150D02*
X521970D01*
X824113Y600476D02*
X827832Y596757D01*
X798747Y603741D02*
X803832Y598657D01*
X812113Y602257D02*
Y623558D01*
X827832Y595975D02*
Y596757D01*
X798747Y603741D02*
Y612057D01*
X818113Y605159D02*
Y623901D01*
X812113Y602257D02*
X815832Y598538D01*
Y597491D02*
Y598538D01*
X688439Y588975D02*
X753270D01*
X681990Y582525D02*
X688439Y588975D01*
X595630Y487680D02*
X674370D01*
X681990Y495300D01*
X676910Y506730D02*
Y585470D01*
X670560Y500380D02*
X676910Y506730D01*
X609600Y500380D02*
X670560D01*
X681990Y495300D02*
Y582525D01*
X706022Y575422D02*
X753270D01*
X704850Y574250D02*
X706022Y575422D01*
X704850Y518160D02*
Y574250D01*
X689610Y510540D02*
X697230D01*
X704850Y518160D01*
X676910Y585470D02*
X687285Y595845D01*
X744560Y567625D02*
X748690D01*
X687285Y595845D02*
X749172D01*
X662940Y544830D02*
X669290Y551180D01*
Y588010D01*
X685124Y603844D01*
X749310D01*
X747724Y559497D02*
Y560580D01*
X745840Y557613D02*
X747724Y559497D01*
X745840Y513595D02*
Y557613D01*
X748690Y567625D02*
X749455Y568390D01*
X751840Y513252D02*
Y553720D01*
X596900Y415290D02*
X731618D01*
X591820Y311150D02*
Y410210D01*
X596900Y415290D01*
X617220Y311150D02*
Y392430D01*
X620680Y395890D01*
X728980D01*
X731170Y393700D01*
X741680D01*
X642620Y311150D02*
Y339090D01*
X669290Y365760D01*
X668020Y311150D02*
Y341630D01*
X811963Y390727D02*
Y391593D01*
X805180Y372110D02*
Y392430D01*
X692978Y311592D02*
Y329758D01*
X812285Y507080D02*
Y512675D01*
X812690Y513080D01*
X692978Y311592D02*
X693420Y311150D01*
X843630Y459390D02*
Y493056D01*
X847090Y496516D01*
Y504190D01*
X825880Y491465D02*
Y504190D01*
X791516Y606300D02*
Y622606D01*
X798830Y612140D02*
Y621607D01*
X841433Y664210D01*
X798747Y612057D02*
X798830Y612140D01*
X841433Y664210D02*
X895350D01*
X837120Y668210D02*
X872490D01*
X791516Y622606D02*
X837120Y668210D01*
X872490D02*
X873760Y669480D01*
Y703580D01*
X805180Y608330D02*
Y622300D01*
X812113Y623558D02*
X842605Y654050D01*
X805180Y622300D02*
X842010Y659130D01*
X915670D01*
X895350Y664210D02*
X899160Y668020D01*
Y703580D01*
X937260Y628650D02*
X1052830D01*
X866092Y562158D02*
X887730Y540520D01*
X1052830Y628650D02*
X1102360Y678180D01*
X1026160Y642902D02*
Y704850D01*
X1039050Y637730D02*
X1049462Y648142D01*
X967230Y649730D02*
X975360Y657860D01*
X843941Y649730D02*
X967230D01*
X818113Y623901D02*
X843941Y649730D01*
X1000060Y645730D02*
X1003300Y648970D01*
X1024988Y641730D02*
X1026160Y642902D01*
X1050290Y633730D02*
X1076960Y660400D01*
X1102360Y678180D02*
Y704850D01*
X1076960Y660400D02*
Y706120D01*
X842605Y654050D02*
X950058D01*
X951230Y655222D02*
Y678860D01*
X950058Y654050D02*
X951230Y655222D01*
X915670Y659130D02*
X919830Y663290D01*
Y679800D02*
X924560Y684530D01*
Y704850D01*
X919830Y663290D02*
Y679800D01*
X949960Y680130D02*
Y704850D01*
Y680130D02*
X951230Y678860D01*
X975360Y657860D02*
Y703580D01*
X998570Y671486D02*
Y689271D01*
Y671486D02*
X1003300Y666756D01*
X1000760Y691461D02*
Y704850D01*
X998570Y689271D02*
X1000760Y691461D01*
X1003300Y648970D02*
Y666756D01*
X1049462Y648142D02*
Y668026D01*
X1048100Y669387D02*
X1049462Y668026D01*
X1048100Y669387D02*
Y689271D01*
X1051560Y692731D02*
Y706120D01*
X1048100Y689271D02*
X1051560Y692731D01*
D81*
X1010920Y364490D02*
D03*
X504190Y565150D02*
D03*
X1099820Y328930D02*
D03*
Y306070D02*
D03*
D84*
X1090128Y319238D02*
X1099820Y328930D01*
X1007768Y320689D02*
X1010030Y318427D01*
X1073618Y319238D02*
X1090128D01*
X1010030Y316573D02*
Y317500D01*
Y318427D01*
X921850Y337486D02*
X1002200D01*
X1007768Y331918D01*
X890270Y334010D02*
Y458470D01*
X915752Y331388D02*
X921850Y337486D01*
X892892Y331388D02*
X915752D01*
X1007768Y320689D02*
Y331918D01*
X890270Y334010D02*
X892892Y331388D01*
X1068070Y313690D02*
X1073618Y319238D01*
X1068070Y299720D02*
Y313690D01*
X1007768Y314311D02*
X1010030Y316573D01*
X1013460Y292100D02*
X1060450D01*
X1068070Y299720D01*
X1007768Y297792D02*
X1013460Y292100D01*
X1007768Y297792D02*
Y314311D01*
X776746Y550172D02*
X849537D01*
X775512Y548938D02*
X776746Y550172D01*
X699102Y685466D02*
X746930D01*
X764540Y667856D01*
X771002Y548938D02*
X775512D01*
X770890Y549050D02*
X771002Y548938D01*
X696428Y702288D02*
X697720Y703580D01*
X707390D01*
X696428Y688140D02*
X699102Y685466D01*
X696428Y688140D02*
Y702288D01*
X849537Y550172D02*
X859790Y539920D01*
Y479748D02*
Y539920D01*
X861082Y478456D02*
X870284D01*
X890270Y458470D01*
X859790Y479748D02*
X861082Y478456D01*
X770223Y548383D02*
X770890Y549050D01*
X770223Y545207D02*
Y548383D01*
X764540Y546002D02*
Y667856D01*
X766865Y543677D02*
X768693D01*
X770223Y545207D01*
X764540Y546002D02*
X766865Y543677D01*
X1004292Y320689D02*
Y330478D01*
X1002030Y318427D02*
X1004292Y320689D01*
X1000760Y334010D02*
X1004292Y330478D01*
X1075058Y315762D02*
X1090128D01*
X1071546Y312250D02*
X1075058Y315762D01*
X1002030Y316573D02*
X1004292Y314311D01*
X923290Y334010D02*
X1000760D01*
X917192Y327912D02*
X923290Y334010D01*
X886794Y332570D02*
X891452Y327912D01*
X917192D01*
X1002030Y316573D02*
Y317500D01*
Y318427D01*
X1090128Y315762D02*
X1099820Y306070D01*
X1071546Y298280D02*
Y312250D01*
X1012020Y288624D02*
X1061890D01*
X1071546Y298280D01*
X1004292Y296352D02*
X1012020Y288624D01*
X1004292Y296352D02*
Y314311D01*
X761064Y544562D02*
Y666416D01*
X775549Y544060D02*
X778186Y546696D01*
X697662Y681990D02*
X745490D01*
X761064Y666416D01*
X778186Y546696D02*
X848098D01*
X681990Y703580D02*
X691660D01*
X692952Y686700D02*
Y702288D01*
Y686700D02*
X697662Y681990D01*
X691660Y703580D02*
X692952Y702288D01*
X856314Y478308D02*
Y538480D01*
Y478308D02*
X859642Y474980D01*
X848098Y546696D02*
X856314Y538480D01*
X868844Y474980D02*
X886794Y457030D01*
Y332570D02*
Y457030D01*
X859642Y474980D02*
X868844D01*
X774301Y540905D02*
X774824Y541427D01*
X761064Y544562D02*
X765425Y540201D01*
X770836Y540905D02*
X774301D01*
X770133Y540201D02*
X770836Y540905D01*
X765425Y540201D02*
X770133D01*
D90*
X386080Y515620D02*
D03*
D91*
X360580Y490120D02*
D03*
Y541120D02*
D03*
X411580Y490120D02*
D03*
Y541120D02*
D03*
D92*
X808990Y725170D02*
D03*
X783590D02*
D03*
X758190D02*
D03*
X732790D02*
D03*
X707390D02*
D03*
X681990D02*
D03*
X781050Y285750D02*
D03*
D93*
X718820Y289560D02*
D03*
X693420D02*
D03*
X668020D02*
D03*
X642620D02*
D03*
X617220D02*
D03*
X591820D02*
D03*
X1102360Y725170D02*
D03*
X1076960D02*
D03*
X1051560D02*
D03*
X1026160D02*
D03*
X1000760D02*
D03*
X975360D02*
D03*
X949960D02*
D03*
X924560D02*
D03*
X899160D02*
D03*
X873760D02*
D03*
D94*
X882650Y285750D02*
D03*
X857250D02*
D03*
X831850D02*
D03*
X806450D02*
D03*
X908050D02*
D03*
D95*
X1074420Y381000D02*
D03*
D96*
Y431800D02*
D03*
D97*
X983000Y277830D02*
D03*
X1023000D02*
D03*
D98*
X967250Y308080D02*
D03*
Y273580D02*
D03*
X1038750D02*
D03*
Y308080D02*
D03*
D99*
X1076960Y706120D02*
D03*
X1051560D02*
D03*
X882650Y270510D02*
D03*
X980440Y290830D02*
D03*
X1016000Y306070D02*
D03*
X1026160Y364490D02*
D03*
X906780Y346710D02*
D03*
X1002030Y317500D02*
D03*
X1010030D02*
D03*
X1106170Y381000D02*
D03*
X1010220Y400477D02*
D03*
X985520Y402590D02*
D03*
X1108710Y431800D02*
D03*
X961390Y449580D02*
D03*
X972820Y457200D02*
D03*
X1029970Y457200D02*
D03*
X972820Y476250D02*
D03*
X1104900Y494030D02*
D03*
X1008380Y496570D02*
D03*
X893730Y497840D02*
D03*
X924560Y501650D02*
D03*
X969010Y508000D02*
D03*
X946150Y523240D02*
D03*
X887730Y525780D02*
D03*
X1022350Y558800D02*
D03*
X1084580Y565150D02*
D03*
X1022350Y571500D02*
D03*
X1120140Y582930D02*
D03*
X1056640Y584200D02*
D03*
X944880Y621030D02*
D03*
X1141730Y674370D02*
D03*
X944880Y675640D02*
D03*
X963930Y676910D02*
D03*
X1004570Y679450D02*
D03*
X1054100D02*
D03*
X975360Y703580D02*
D03*
X949960Y704850D02*
D03*
X1000760D02*
D03*
X1026160D02*
D03*
X1102360D02*
D03*
X788670Y360680D02*
D03*
X781050Y306070D02*
D03*
X774700Y360680D02*
D03*
X360680Y461010D02*
D03*
X411480Y462280D02*
D03*
X505460Y477520D02*
D03*
X551434Y505460D02*
D03*
X579861Y488765D02*
D03*
X609600Y500380D02*
D03*
X608330Y520700D02*
D03*
X595630Y487680D02*
D03*
X604520Y473710D02*
D03*
X690880Y582930D02*
D03*
X670560Y524510D02*
D03*
X693420Y481330D02*
D03*
X789940Y487680D02*
D03*
X693420Y501270D02*
D03*
X745490Y501650D02*
D03*
X488950Y525780D02*
D03*
X551180Y528320D02*
D03*
X411480Y568960D02*
D03*
X360680D02*
D03*
X588010Y544830D02*
D03*
X518160D02*
D03*
X589280Y595630D02*
D03*
X609600Y551180D02*
D03*
X568960Y552450D02*
D03*
X609600Y628650D02*
D03*
X544830Y582930D02*
D03*
X594360Y562610D02*
D03*
X538480Y562610D02*
D03*
X609600Y608330D02*
D03*
X791516Y606300D02*
D03*
X763270Y529590D02*
D03*
X749310Y603844D02*
D03*
X751840Y553720D02*
D03*
X747724Y560580D02*
D03*
X749455Y568390D02*
D03*
X753270Y575422D02*
D03*
X748030Y582930D02*
D03*
X753270Y588975D02*
D03*
X749172Y595845D02*
D03*
X784860Y598170D02*
D03*
X770890Y549050D02*
D03*
X774824Y541427D02*
D03*
X668020Y608330D02*
D03*
X670560Y628650D02*
D03*
X739840Y653350D02*
D03*
X777240Y679450D02*
D03*
X775970Y694690D02*
D03*
X783590Y741680D02*
D03*
X732790Y703580D02*
D03*
X758190D02*
D03*
X681990D02*
D03*
X707390D02*
D03*
X796290Y511810D02*
D03*
X805180Y372110D02*
D03*
X811963Y390727D02*
D03*
X812690Y513080D02*
D03*
X818395Y501365D02*
D03*
X825880Y504190D02*
D03*
X830580Y433070D02*
D03*
X838200Y500380D02*
D03*
X847090Y504190D02*
D03*
X850900Y332740D02*
D03*
X857250Y308610D02*
D03*
X871220Y431450D02*
D03*
Y488950D02*
D03*
X943610Y553720D02*
D03*
X866092Y562158D02*
D03*
X842010Y562610D02*
D03*
X869950Y570230D02*
D03*
X798830Y576580D02*
D03*
X878840Y577850D02*
D03*
X900430Y582930D02*
D03*
X861207Y584813D02*
D03*
X827832Y595975D02*
D03*
X815832Y597491D02*
D03*
X803832Y598657D02*
D03*
X853746Y601287D02*
D03*
X845820Y602370D02*
D03*
X818113Y605159D02*
D03*
X830113Y605233D02*
D03*
X805180Y608330D02*
D03*
X855980Y619760D02*
D03*
X916015Y622650D02*
D03*
X817880Y671830D02*
D03*
X795020Y674370D02*
D03*
X925830Y675640D02*
D03*
X873760Y703580D02*
D03*
X899160D02*
D03*
X808990Y704850D02*
D03*
X924560D02*
D03*
X617220Y311150D02*
D03*
X642620D02*
D03*
X668020D02*
D03*
X718820D02*
D03*
X693420D02*
D03*
X720090Y341630D02*
D03*
X736600Y355600D02*
D03*
X664210Y369570D02*
D03*
X591820Y311150D02*
D03*
X784860Y509270D02*
D03*
X689610Y510540D02*
D03*
X696042Y524510D02*
D03*
X727710Y375920D02*
D03*
X665480Y426720D02*
D03*
X789940Y431800D02*
D03*
X665480Y447040D02*
D03*
X751490Y447740D02*
D03*
X721360Y448310D02*
D03*
X613410Y589280D02*
D03*
X614680Y570230D02*
D03*
X769913Y607685D02*
D03*
X797560Y533400D02*
D03*
X840740D02*
D03*
X837873Y603288D02*
D03*
M02*
