G04*
G04 #@! TF.GenerationSoftware,Altium Limited,Altium Designer,22.11.1 (43)*
G04*
G04 Layer_Color=8388736*
%FSLAX44Y44*%
%MOMM*%
G71*
G04*
G04 #@! TF.SameCoordinates,6325C8D2-15E4-4679-A439-48E371F70F26*
G04*
G04*
G04 #@! TF.FilePolarity,Negative*
G04*
G01*
G75*
%ADD44R,1.6000X1.4500*%
%ADD45R,0.5500X2.0000*%
%ADD46R,0.6300X0.3800*%
%ADD47R,0.6400X0.4400*%
%ADD48R,0.4400X0.6400*%
%ADD49R,0.3800X0.6300*%
%ADD50R,5.2800X5.2800*%
%ADD51R,1.3532X0.6332*%
%ADD52O,1.3532X0.6332*%
%ADD53C,1.7032*%
%ADD54R,1.4500X1.6000*%
%ADD55R,0.5750X0.3500*%
%ADD56R,0.3500X0.5750*%
%ADD57R,1.1032X1.2032*%
%ADD58R,1.1032X1.2032*%
%ADD59R,1.2032X1.1032*%
%ADD60R,1.2032X1.1032*%
%ADD61R,1.3032X2.1032*%
%ADD62R,4.2032X2.2032*%
%ADD63R,0.7200X0.6700*%
%ADD64R,0.6700X0.7200*%
%ADD65R,0.5000X0.5000*%
%ADD66R,0.5000X0.5000*%
%ADD67R,0.7000X0.7000*%
%ADD68R,0.7000X0.7000*%
%ADD69C,2.3032*%
%ADD70C,2.4032*%
%ADD71R,1.8500X1.8500*%
%ADD72R,2.0032X2.0032*%
%ADD73C,1.9032*%
%ADD74R,1.9032X1.9032*%
%ADD75R,4.0132X4.0132*%
%ADD76C,4.0132*%
%ADD77C,0.5500*%
G04:AMPARAMS|DCode=78|XSize=1.05mm|YSize=0.45mm|CornerRadius=0.15mm|HoleSize=0mm|Usage=FLASHONLY|Rotation=270.000|XOffset=0mm|YOffset=0mm|HoleType=Round|Shape=RoundedRectangle|*
%AMROUNDEDRECTD78*
21,1,1.0500,0.1500,0,0,270.0*
21,1,0.7500,0.4500,0,0,270.0*
1,1,0.3000,-0.0750,-0.3750*
1,1,0.3000,-0.0750,0.3750*
1,1,0.3000,0.0750,0.3750*
1,1,0.3000,0.0750,-0.3750*
%
%ADD78ROUNDEDRECTD78*%
D44*
X652080Y551180D02*
D03*
X628080D02*
D03*
X652080Y570230D02*
D03*
X628080D02*
D03*
X652080Y589280D02*
D03*
X628080D02*
D03*
Y608330D02*
D03*
X652080D02*
D03*
X628080Y628650D02*
D03*
X652080D02*
D03*
X708090Y582930D02*
D03*
X732090D02*
D03*
X827470Y391160D02*
D03*
X851470D02*
D03*
X827470Y372110D02*
D03*
X851470D02*
D03*
X680720Y447040D02*
D03*
X704720D02*
D03*
X568390Y473710D02*
D03*
X592390D02*
D03*
X1010220Y434340D02*
D03*
X986220D02*
D03*
X708090Y501650D02*
D03*
X732090D02*
D03*
X680720Y426720D02*
D03*
X704720D02*
D03*
X1010220Y415290D02*
D03*
X986220D02*
D03*
Y457200D02*
D03*
X1010220D02*
D03*
X986220Y476250D02*
D03*
X1010220D02*
D03*
X1007810Y509270D02*
D03*
X1031810D02*
D03*
Y528320D02*
D03*
X1007810D02*
D03*
X903670Y521970D02*
D03*
X927670D02*
D03*
X732090Y523240D02*
D03*
X708090D02*
D03*
X732090Y542290D02*
D03*
X708090D02*
D03*
X732090Y561340D02*
D03*
X708090D02*
D03*
Y481330D02*
D03*
X732090D02*
D03*
X704720Y407670D02*
D03*
X680720D02*
D03*
X704720Y388620D02*
D03*
X680720D02*
D03*
X704720Y369570D02*
D03*
X680720D02*
D03*
X628650Y524510D02*
D03*
X652650D02*
D03*
D45*
X1003000Y290830D02*
D03*
X1009500D02*
D03*
X990000D02*
D03*
X996500D02*
D03*
X1016000D02*
D03*
D46*
X785940Y542050D02*
D03*
Y547050D02*
D03*
X853440Y567050D02*
D03*
Y527050D02*
D03*
Y532050D02*
D03*
Y537050D02*
D03*
Y542050D02*
D03*
Y547050D02*
D03*
Y552050D02*
D03*
Y562050D02*
D03*
Y572050D02*
D03*
Y577050D02*
D03*
Y582050D02*
D03*
X785940D02*
D03*
Y577050D02*
D03*
Y572050D02*
D03*
Y567050D02*
D03*
Y562050D02*
D03*
Y557050D02*
D03*
Y552050D02*
D03*
Y537050D02*
D03*
Y532050D02*
D03*
Y527050D02*
D03*
X853440Y557050D02*
D03*
D47*
X597290Y505150D02*
D03*
Y510150D02*
D03*
Y515150D02*
D03*
Y520150D02*
D03*
Y525150D02*
D03*
X560790D02*
D03*
Y520150D02*
D03*
Y515150D02*
D03*
Y510150D02*
D03*
Y505150D02*
D03*
D48*
X589040Y533400D02*
D03*
X584040D02*
D03*
X579040D02*
D03*
X574040D02*
D03*
X569040D02*
D03*
Y496900D02*
D03*
X574040D02*
D03*
X579040D02*
D03*
X584040D02*
D03*
X589040D02*
D03*
D49*
X847190Y588300D02*
D03*
X842190D02*
D03*
X837190D02*
D03*
X832190D02*
D03*
X827190D02*
D03*
X822190D02*
D03*
X817190D02*
D03*
X812190D02*
D03*
X807190D02*
D03*
X802190D02*
D03*
X797190D02*
D03*
X792190D02*
D03*
Y520800D02*
D03*
X797190D02*
D03*
X802190D02*
D03*
X807190D02*
D03*
X812190D02*
D03*
X817190D02*
D03*
X822190D02*
D03*
X827190D02*
D03*
X832190D02*
D03*
X837190D02*
D03*
X842190D02*
D03*
X847190D02*
D03*
D50*
X819658Y554482D02*
D03*
D51*
X1005840Y584200D02*
D03*
D52*
Y571500D02*
D03*
Y558800D02*
D03*
Y546100D02*
D03*
X1068840Y584200D02*
D03*
Y571500D02*
D03*
Y558800D02*
D03*
Y546100D02*
D03*
D53*
X1054100Y662940D02*
D03*
X1135380Y558800D02*
D03*
X961390Y434340D02*
D03*
X972820Y567690D02*
D03*
X1123950Y673100D02*
D03*
X850900Y346710D02*
D03*
X732790Y604520D02*
D03*
X669290Y485140D02*
D03*
X618490Y462280D02*
D03*
X633730Y485140D02*
D03*
X842010Y629920D02*
D03*
X843280Y411480D02*
D03*
X821690Y345440D02*
D03*
X887730Y621030D02*
D03*
X911365Y424955D02*
D03*
X704850Y341630D02*
D03*
X628650Y657860D02*
D03*
X549910Y646430D02*
D03*
D54*
X1104900Y558800D02*
D03*
Y582800D02*
D03*
X963930Y635700D02*
D03*
Y659700D02*
D03*
X980440Y508130D02*
D03*
Y532130D02*
D03*
X1104900Y511240D02*
D03*
Y535240D02*
D03*
X789940Y447740D02*
D03*
Y471740D02*
D03*
X817880Y653350D02*
D03*
Y629350D02*
D03*
X763270Y447740D02*
D03*
Y471740D02*
D03*
X871220Y447740D02*
D03*
Y471740D02*
D03*
X796290Y653350D02*
D03*
Y629350D02*
D03*
X811530Y471740D02*
D03*
Y447740D02*
D03*
X830580Y471740D02*
D03*
Y447740D02*
D03*
X849630Y471740D02*
D03*
Y447740D02*
D03*
X756920Y653350D02*
D03*
Y629350D02*
D03*
X777240D02*
D03*
Y653350D02*
D03*
X925830Y635700D02*
D03*
Y659700D02*
D03*
X944880Y635700D02*
D03*
Y659700D02*
D03*
D55*
X735095Y383460D02*
D03*
Y378460D02*
D03*
Y373460D02*
D03*
X753345D02*
D03*
Y378460D02*
D03*
Y383460D02*
D03*
D56*
X736720Y366835D02*
D03*
X741720D02*
D03*
X746720D02*
D03*
X751720D02*
D03*
Y390085D02*
D03*
X746720D02*
D03*
X741720D02*
D03*
X736720D02*
D03*
D57*
X925830Y557530D02*
D03*
X909830Y579530D02*
D03*
X925830D02*
D03*
D58*
X909830Y557530D02*
D03*
D59*
X556260Y580390D02*
D03*
X578260Y596390D02*
D03*
Y580390D02*
D03*
D60*
X556260Y596390D02*
D03*
D61*
X930510Y472440D02*
D03*
X905510D02*
D03*
D62*
X1004570Y622120D02*
D03*
Y663120D02*
D03*
D63*
X890270Y572490D02*
D03*
Y562890D02*
D03*
D64*
X921740Y450850D02*
D03*
X912140D02*
D03*
X905790Y596900D02*
D03*
X915390D02*
D03*
X572210Y614680D02*
D03*
X562610D02*
D03*
D65*
X517740Y501650D02*
D03*
X528740D02*
D03*
X506310Y514350D02*
D03*
X517310D02*
D03*
X482180Y502920D02*
D03*
X493180D02*
D03*
D66*
X541020Y525360D02*
D03*
Y536360D02*
D03*
D67*
X900860Y494030D02*
D03*
X911860D02*
D03*
X924560D02*
D03*
X935560D02*
D03*
X924980Y538480D02*
D03*
X913980D02*
D03*
X469050Y514350D02*
D03*
X458050D02*
D03*
X528740Y525780D02*
D03*
X517740D02*
D03*
Y537210D02*
D03*
X528740D02*
D03*
X546950Y562610D02*
D03*
X557950D02*
D03*
X585890Y562610D02*
D03*
X574890D02*
D03*
D68*
X943610Y564730D02*
D03*
Y575730D02*
D03*
X541020Y501650D02*
D03*
Y490650D02*
D03*
X505460Y501650D02*
D03*
Y490650D02*
D03*
X481330Y526200D02*
D03*
Y515200D02*
D03*
D69*
X386080Y515620D02*
D03*
D70*
X360580Y490120D02*
D03*
Y541120D02*
D03*
X411580Y490120D02*
D03*
Y541120D02*
D03*
D71*
X808990Y725170D02*
D03*
X783590D02*
D03*
X758190D02*
D03*
X732790D02*
D03*
X707390D02*
D03*
X681990D02*
D03*
D72*
X718820Y289560D02*
D03*
X693420D02*
D03*
X668020D02*
D03*
X642620D02*
D03*
X617220D02*
D03*
X591820D02*
D03*
X1102360Y725170D02*
D03*
X1076960D02*
D03*
X1051560D02*
D03*
X1026160D02*
D03*
X1000760D02*
D03*
X975360D02*
D03*
X949960D02*
D03*
X924560D02*
D03*
X899160D02*
D03*
X873760D02*
D03*
D73*
X882650Y285750D02*
D03*
X857250D02*
D03*
X831850D02*
D03*
X806450D02*
D03*
X908050D02*
D03*
D74*
X781050D02*
D03*
D75*
X1074420Y381000D02*
D03*
D76*
Y431800D02*
D03*
D77*
X983000Y277830D02*
D03*
X1023000D02*
D03*
D78*
X967250Y308080D02*
D03*
Y273580D02*
D03*
X1038750D02*
D03*
Y308080D02*
D03*
M02*
