M48
;Layer_Color=9474304
;FILE_FORMAT=4:4
METRIC,TZ
;TYPE=PLATED
T5F00S00C1.1000
T6F00S00C1.2000
%
T05
X808990Y725170
X783590
X758190
X732790
X707390
X681990
T06
X591820Y289560
X617220
X642620
X668020
X693420
X718820
X873760Y725170
X899160
X924560
X949960
X975360
X1000760
X1026160
X1051560
X1076960
X1102360
M30
