G04*
G04 #@! TF.GenerationSoftware,Altium Limited,Altium Designer,22.11.1 (43)*
G04*
G04 Layer_Color=16711935*
%FSLAX44Y44*%
%MOMM*%
G71*
G04*
G04 #@! TF.SameCoordinates,E6D3E11C-7143-476E-830C-3C019F3168AE*
G04*
G04*
G04 #@! TF.FilePolarity,Negative*
G04*
G01*
G75*
%ADD53C,1.7032*%
%ADD69C,2.3032*%
%ADD70C,2.4032*%
%ADD71R,1.8500X1.8500*%
%ADD72R,2.0032X2.0032*%
%ADD73C,1.9032*%
%ADD74R,1.9032X1.9032*%
%ADD75R,4.0132X4.0132*%
%ADD76C,4.0132*%
%ADD77C,0.5500*%
G04:AMPARAMS|DCode=78|XSize=1.05mm|YSize=0.45mm|CornerRadius=0.15mm|HoleSize=0mm|Usage=FLASHONLY|Rotation=270.000|XOffset=0mm|YOffset=0mm|HoleType=Round|Shape=RoundedRectangle|*
%AMROUNDEDRECTD78*
21,1,1.0500,0.1500,0,0,270.0*
21,1,0.7500,0.4500,0,0,270.0*
1,1,0.3000,-0.0750,-0.3750*
1,1,0.3000,-0.0750,0.3750*
1,1,0.3000,0.0750,0.3750*
1,1,0.3000,0.0750,-0.3750*
%
%ADD78ROUNDEDRECTD78*%
D53*
X1010920Y364490D02*
D03*
X504190Y565150D02*
D03*
X1099820Y328930D02*
D03*
X1101090Y306070D02*
D03*
D69*
X386080Y515620D02*
D03*
D70*
X360580Y490120D02*
D03*
Y541120D02*
D03*
X411580Y490120D02*
D03*
Y541120D02*
D03*
D71*
X808990Y725170D02*
D03*
X783590D02*
D03*
X758190D02*
D03*
X732790D02*
D03*
X707390D02*
D03*
X681990D02*
D03*
D72*
X718820Y289560D02*
D03*
X693420D02*
D03*
X668020D02*
D03*
X642620D02*
D03*
X617220D02*
D03*
X591820D02*
D03*
X1102360Y725170D02*
D03*
X1076960D02*
D03*
X1051560D02*
D03*
X1026160D02*
D03*
X1000760D02*
D03*
X975360D02*
D03*
X949960D02*
D03*
X924560D02*
D03*
X899160D02*
D03*
X873760D02*
D03*
D73*
X882650Y285750D02*
D03*
X857250D02*
D03*
X831850D02*
D03*
X806450D02*
D03*
X908050D02*
D03*
D74*
X781050D02*
D03*
D75*
X1074420Y381000D02*
D03*
D76*
Y431800D02*
D03*
D77*
X983000Y277830D02*
D03*
X1023000D02*
D03*
D78*
X967250Y308080D02*
D03*
Y273580D02*
D03*
X1038750D02*
D03*
Y308080D02*
D03*
M02*
