G04*
G04 #@! TF.GenerationSoftware,Altium Limited,Altium Designer,22.11.1 (43)*
G04*
G04 Layer_Physical_Order=2*
G04 Layer_Color=36540*
%FSLAX44Y44*%
%MOMM*%
G71*
G04*
G04 #@! TF.SameCoordinates,C070AB6A-2F18-4790-B33B-C4DBF4FCC7D7*
G04*
G04*
G04 #@! TF.FilePolarity,Positive*
G04*
G01*
G75*
%ADD90C,2.1000*%
%ADD91C,2.2000*%
%ADD92R,1.7000X1.7000*%
%ADD93R,1.8000X1.8000*%
%ADD94C,1.7000*%
%ADD95R,3.8100X3.8100*%
%ADD96C,3.8100*%
%ADD97C,0.4000*%
G04:AMPARAMS|DCode=98|XSize=0.9mm|YSize=0.3mm|CornerRadius=0.075mm|HoleSize=0mm|Usage=FLASHONLY|Rotation=270.000|XOffset=0mm|YOffset=0mm|HoleType=Round|Shape=RoundedRectangle|*
%AMROUNDEDRECTD98*
21,1,0.9000,0.1500,0,0,270.0*
21,1,0.7500,0.3000,0,0,270.0*
1,1,0.1500,-0.0750,-0.3750*
1,1,0.1500,-0.0750,0.3750*
1,1,0.1500,0.0750,0.3750*
1,1,0.1500,0.0750,-0.3750*
%
%ADD98ROUNDEDRECTD98*%
%ADD99C,0.6000*%
G36*
X1177290Y744220D02*
X1176020Y260350D01*
X347980D01*
X342900Y265430D01*
X341630D01*
Y745490D01*
X351790Y755650D01*
X1165860D01*
X1177290Y744220D01*
D02*
G37*
%LPC*%
G36*
X784860Y747150D02*
Y742950D01*
X789060D01*
X788287Y744818D01*
X786728Y746377D01*
X784860Y747150D01*
D02*
G37*
G36*
X782320D02*
X780452Y746377D01*
X778893Y744818D01*
X778120Y742950D01*
X782320D01*
Y747150D01*
D02*
G37*
G36*
X789060Y740410D02*
X778120D01*
X778893Y738542D01*
X779955Y737480D01*
X779429Y736210D01*
X772550D01*
Y726440D01*
X783590D01*
X794630D01*
Y736210D01*
X787751D01*
X787225Y737480D01*
X788287Y738542D01*
X789060Y740410D01*
D02*
G37*
G36*
X818760Y734940D02*
X799220D01*
Y715400D01*
X818760D01*
Y734940D01*
D02*
G37*
G36*
X767960D02*
X748420D01*
Y715400D01*
X767960D01*
Y734940D01*
D02*
G37*
G36*
X742560D02*
X723020D01*
Y715400D01*
X742560D01*
Y734940D01*
D02*
G37*
G36*
X717160D02*
X697620D01*
Y715400D01*
X717160D01*
Y734940D01*
D02*
G37*
G36*
X691760D02*
X672220D01*
Y715400D01*
X691760D01*
Y734940D01*
D02*
G37*
G36*
X1112630Y735440D02*
X1092090D01*
Y714900D01*
X1112630D01*
Y735440D01*
D02*
G37*
G36*
X1087230D02*
X1066690D01*
Y714900D01*
X1087230D01*
Y735440D01*
D02*
G37*
G36*
X1061830D02*
X1041290D01*
Y714900D01*
X1061830D01*
Y735440D01*
D02*
G37*
G36*
X1036430D02*
X1015890D01*
Y714900D01*
X1036430D01*
Y735440D01*
D02*
G37*
G36*
X1011030D02*
X990490D01*
Y714900D01*
X1011030D01*
Y735440D01*
D02*
G37*
G36*
X985630D02*
X965090D01*
Y714900D01*
X985630D01*
Y735440D01*
D02*
G37*
G36*
X960230D02*
X939690D01*
Y714900D01*
X960230D01*
Y735440D01*
D02*
G37*
G36*
X934830D02*
X914290D01*
Y714900D01*
X934830D01*
Y735440D01*
D02*
G37*
G36*
X909430D02*
X888890D01*
Y714900D01*
X909430D01*
Y735440D01*
D02*
G37*
G36*
X884030D02*
X863490D01*
Y714900D01*
X884030D01*
Y735440D01*
D02*
G37*
G36*
X794630Y723900D02*
X784860D01*
Y714130D01*
X794630D01*
Y723900D01*
D02*
G37*
G36*
X782320D02*
X772550D01*
Y714130D01*
X782320D01*
Y723900D01*
D02*
G37*
G36*
X1077809Y710390D02*
X1076111D01*
X1074541Y709740D01*
X1073340Y708539D01*
X1072690Y706969D01*
Y705271D01*
X1073340Y703701D01*
X1074541Y702500D01*
X1076111Y701850D01*
X1077809D01*
X1079379Y702500D01*
X1080580Y703701D01*
X1081230Y705271D01*
Y706969D01*
X1080580Y708539D01*
X1079379Y709740D01*
X1077809Y710390D01*
D02*
G37*
G36*
X1052409D02*
X1050711D01*
X1049141Y709740D01*
X1047940Y708539D01*
X1047290Y706969D01*
Y705271D01*
X1047940Y703701D01*
X1049141Y702500D01*
X1050711Y701850D01*
X1052409D01*
X1053979Y702500D01*
X1055180Y703701D01*
X1055830Y705271D01*
Y706969D01*
X1055180Y708539D01*
X1053979Y709740D01*
X1052409Y710390D01*
D02*
G37*
G36*
X1103209Y709120D02*
X1101511D01*
X1099941Y708470D01*
X1098740Y707269D01*
X1098090Y705699D01*
Y704001D01*
X1098740Y702431D01*
X1099941Y701230D01*
X1101511Y700580D01*
X1103209D01*
X1104779Y701230D01*
X1105980Y702431D01*
X1106630Y704001D01*
Y705699D01*
X1105980Y707269D01*
X1104779Y708470D01*
X1103209Y709120D01*
D02*
G37*
G36*
X1027009D02*
X1025311D01*
X1023741Y708470D01*
X1022540Y707269D01*
X1021890Y705699D01*
Y704001D01*
X1022540Y702431D01*
X1023741Y701230D01*
X1025311Y700580D01*
X1027009D01*
X1028579Y701230D01*
X1029780Y702431D01*
X1030430Y704001D01*
Y705699D01*
X1029780Y707269D01*
X1028579Y708470D01*
X1027009Y709120D01*
D02*
G37*
G36*
X1001609D02*
X999911D01*
X998341Y708470D01*
X997140Y707269D01*
X996490Y705699D01*
Y704001D01*
X997140Y702431D01*
X998341Y701230D01*
X999911Y700580D01*
X1001609D01*
X1003179Y701230D01*
X1004380Y702431D01*
X1005030Y704001D01*
Y705699D01*
X1004380Y707269D01*
X1003179Y708470D01*
X1001609Y709120D01*
D02*
G37*
G36*
X950809D02*
X949111D01*
X947541Y708470D01*
X946340Y707269D01*
X945690Y705699D01*
Y704001D01*
X946340Y702431D01*
X947541Y701230D01*
X949111Y700580D01*
X950809D01*
X952379Y701230D01*
X953580Y702431D01*
X954230Y704001D01*
Y705699D01*
X953580Y707269D01*
X952379Y708470D01*
X950809Y709120D01*
D02*
G37*
G36*
X925409D02*
X923711D01*
X922141Y708470D01*
X920940Y707269D01*
X920290Y705699D01*
Y704001D01*
X920940Y702431D01*
X922141Y701230D01*
X923711Y700580D01*
X925409D01*
X926979Y701230D01*
X928180Y702431D01*
X928830Y704001D01*
Y705699D01*
X928180Y707269D01*
X926979Y708470D01*
X925409Y709120D01*
D02*
G37*
G36*
X809839D02*
X808141D01*
X806571Y708470D01*
X805370Y707269D01*
X804720Y705699D01*
Y704001D01*
X805370Y702431D01*
X806571Y701230D01*
X808141Y700580D01*
X809839D01*
X811409Y701230D01*
X812610Y702431D01*
X813260Y704001D01*
Y705699D01*
X812610Y707269D01*
X811409Y708470D01*
X809839Y709120D01*
D02*
G37*
G36*
X976209Y707850D02*
X974511D01*
X972941Y707200D01*
X971740Y705999D01*
X971090Y704429D01*
Y702731D01*
X971740Y701161D01*
X972941Y699960D01*
X974511Y699310D01*
X976209D01*
X977779Y699960D01*
X978980Y701161D01*
X979630Y702731D01*
Y704429D01*
X978980Y705999D01*
X977779Y707200D01*
X976209Y707850D01*
D02*
G37*
G36*
X900009D02*
X898311D01*
X896741Y707200D01*
X895540Y705999D01*
X894890Y704429D01*
Y702731D01*
X895540Y701161D01*
X896741Y699960D01*
X898311Y699310D01*
X900009D01*
X901579Y699960D01*
X902780Y701161D01*
X903430Y702731D01*
Y704429D01*
X902780Y705999D01*
X901579Y707200D01*
X900009Y707850D01*
D02*
G37*
G36*
X874609D02*
X872911D01*
X871341Y707200D01*
X870140Y705999D01*
X869490Y704429D01*
Y702731D01*
X870140Y701161D01*
X871341Y699960D01*
X872911Y699310D01*
X874609D01*
X876179Y699960D01*
X877380Y701161D01*
X878030Y702731D01*
Y704429D01*
X877380Y705999D01*
X876179Y707200D01*
X874609Y707850D01*
D02*
G37*
G36*
X759039D02*
X757341D01*
X755771Y707200D01*
X754570Y705999D01*
X753920Y704429D01*
Y702731D01*
X754570Y701161D01*
X755771Y699960D01*
X757341Y699310D01*
X759039D01*
X760609Y699960D01*
X761810Y701161D01*
X762460Y702731D01*
Y704429D01*
X761810Y705999D01*
X760609Y707200D01*
X759039Y707850D01*
D02*
G37*
G36*
X733639D02*
X731941D01*
X730371Y707200D01*
X729170Y705999D01*
X728520Y704429D01*
Y702731D01*
X729170Y701161D01*
X730371Y699960D01*
X731941Y699310D01*
X733639D01*
X735209Y699960D01*
X736410Y701161D01*
X737060Y702731D01*
Y704429D01*
X736410Y705999D01*
X735209Y707200D01*
X733639Y707850D01*
D02*
G37*
G36*
X708239D02*
X706541D01*
X704971Y707200D01*
X703770Y705999D01*
X703120Y704429D01*
Y702731D01*
X703770Y701161D01*
X704971Y699960D01*
X706541Y699310D01*
X708239D01*
X709809Y699960D01*
X711010Y701161D01*
X711660Y702731D01*
Y704429D01*
X711010Y705999D01*
X709809Y707200D01*
X708239Y707850D01*
D02*
G37*
G36*
X682839D02*
X681141D01*
X679571Y707200D01*
X678370Y705999D01*
X677720Y704429D01*
Y702731D01*
X678370Y701161D01*
X679571Y699960D01*
X681141Y699310D01*
X682839D01*
X684409Y699960D01*
X685610Y701161D01*
X686260Y702731D01*
Y704429D01*
X685610Y705999D01*
X684409Y707200D01*
X682839Y707850D01*
D02*
G37*
G36*
X776819Y698960D02*
X775121D01*
X773551Y698310D01*
X772350Y697109D01*
X771700Y695539D01*
Y693841D01*
X772350Y692271D01*
X773551Y691070D01*
X775121Y690420D01*
X776819D01*
X778389Y691070D01*
X779590Y692271D01*
X780240Y693841D01*
Y695539D01*
X779590Y697109D01*
X778389Y698310D01*
X776819Y698960D01*
D02*
G37*
G36*
X778510Y684920D02*
Y680720D01*
X782710D01*
X781937Y682588D01*
X780378Y684147D01*
X778510Y684920D01*
D02*
G37*
G36*
X775970D02*
X774102Y684147D01*
X772543Y682588D01*
X771770Y680720D01*
X775970D01*
Y684920D01*
D02*
G37*
G36*
X1143000Y679840D02*
Y675640D01*
X1147200D01*
X1146427Y677508D01*
X1144868Y679067D01*
X1143000Y679840D01*
D02*
G37*
G36*
X1140460D02*
X1138592Y679067D01*
X1137033Y677508D01*
X1136260Y675640D01*
X1140460D01*
Y679840D01*
D02*
G37*
G36*
X1054949Y683720D02*
X1053251D01*
X1051681Y683070D01*
X1050480Y681869D01*
X1049830Y680299D01*
Y678601D01*
X1050480Y677031D01*
X1051681Y675830D01*
X1053251Y675180D01*
X1054949D01*
X1056519Y675830D01*
X1057720Y677031D01*
X1058370Y678601D01*
Y680299D01*
X1057720Y681869D01*
X1056519Y683070D01*
X1054949Y683720D01*
D02*
G37*
G36*
X1005419D02*
X1003721D01*
X1002151Y683070D01*
X1000950Y681869D01*
X1000300Y680299D01*
Y678601D01*
X1000950Y677031D01*
X1002151Y675830D01*
X1003721Y675180D01*
X1005419D01*
X1006989Y675830D01*
X1008190Y677031D01*
X1008840Y678601D01*
Y680299D01*
X1008190Y681869D01*
X1006989Y683070D01*
X1005419Y683720D01*
D02*
G37*
G36*
X782710Y678180D02*
X778510D01*
Y673980D01*
X780378Y674753D01*
X781937Y676312D01*
X782710Y678180D01*
D02*
G37*
G36*
X775970D02*
X771770D01*
X772543Y676312D01*
X774102Y674753D01*
X775970Y673980D01*
Y678180D01*
D02*
G37*
G36*
X964779Y681180D02*
X963081D01*
X961511Y680530D01*
X960310Y679329D01*
X959660Y677759D01*
Y676061D01*
X960310Y674491D01*
X961511Y673290D01*
X963081Y672640D01*
X964779D01*
X966349Y673290D01*
X967550Y674491D01*
X968200Y676061D01*
Y677759D01*
X967550Y679329D01*
X966349Y680530D01*
X964779Y681180D01*
D02*
G37*
G36*
X926679Y679910D02*
X924981D01*
X923411Y679260D01*
X922210Y678059D01*
X921560Y676489D01*
Y674791D01*
X922210Y673221D01*
X923411Y672020D01*
X924981Y671370D01*
X926679D01*
X928249Y672020D01*
X929450Y673221D01*
X930100Y674791D01*
Y676489D01*
X929450Y678059D01*
X928249Y679260D01*
X926679Y679910D01*
D02*
G37*
G36*
X945729Y679910D02*
X944031D01*
X942461Y679260D01*
X941260Y678059D01*
X940610Y676489D01*
Y674791D01*
X941260Y673221D01*
X942461Y672020D01*
X944031Y671370D01*
X945729D01*
X947299Y672020D01*
X948500Y673221D01*
X949150Y674791D01*
Y676489D01*
X948500Y678059D01*
X947299Y679260D01*
X945729Y679910D01*
D02*
G37*
G36*
X795869Y678640D02*
X794171D01*
X792601Y677990D01*
X791400Y676789D01*
X790750Y675219D01*
Y673521D01*
X791400Y671951D01*
X792601Y670750D01*
X794171Y670100D01*
X795869D01*
X797439Y670750D01*
X798640Y671951D01*
X799290Y673521D01*
Y675219D01*
X798640Y676789D01*
X797439Y677990D01*
X795869Y678640D01*
D02*
G37*
G36*
X1147200Y673100D02*
X1143000D01*
Y668900D01*
X1144868Y669673D01*
X1146427Y671232D01*
X1147200Y673100D01*
D02*
G37*
G36*
X1140460D02*
X1136260D01*
X1137033Y671232D01*
X1138592Y669673D01*
X1140460Y668900D01*
Y673100D01*
D02*
G37*
G36*
X818729Y676100D02*
X817031D01*
X815461Y675450D01*
X814260Y674249D01*
X813610Y672679D01*
Y670981D01*
X814260Y669411D01*
X815461Y668210D01*
X817031Y667560D01*
X818729D01*
X820299Y668210D01*
X821500Y669411D01*
X822150Y670981D01*
Y672679D01*
X821500Y674249D01*
X820299Y675450D01*
X818729Y676100D01*
D02*
G37*
G36*
X740689Y657620D02*
X738991D01*
X737421Y656970D01*
X736220Y655769D01*
X735570Y654199D01*
Y652501D01*
X736220Y650931D01*
X737421Y649730D01*
X738991Y649080D01*
X740689D01*
X742259Y649730D01*
X743460Y650931D01*
X744110Y652501D01*
Y654199D01*
X743460Y655769D01*
X742259Y656970D01*
X740689Y657620D01*
D02*
G37*
G36*
X610449Y632920D02*
X608751D01*
X607181Y632270D01*
X605980Y631069D01*
X605330Y629499D01*
Y627801D01*
X605980Y626231D01*
X607181Y625030D01*
X608751Y624380D01*
X610449D01*
X612019Y625030D01*
X613220Y626231D01*
X613870Y627801D01*
Y629499D01*
X613220Y631069D01*
X612019Y632270D01*
X610449Y632920D01*
D02*
G37*
G36*
X671409Y632920D02*
X669711D01*
X668141Y632270D01*
X666940Y631069D01*
X666290Y629499D01*
Y627801D01*
X666940Y626231D01*
X668141Y625030D01*
X669711Y624380D01*
X671409D01*
X672979Y625030D01*
X674180Y626231D01*
X674830Y627801D01*
Y629499D01*
X674180Y631069D01*
X672979Y632270D01*
X671409Y632920D01*
D02*
G37*
G36*
X917285Y628120D02*
Y623920D01*
X921485D01*
X920711Y625788D01*
X919153Y627347D01*
X917285Y628120D01*
D02*
G37*
G36*
X914745D02*
X912877Y627347D01*
X911318Y625788D01*
X910544Y623920D01*
X914745D01*
Y628120D01*
D02*
G37*
G36*
X946150Y626500D02*
Y622300D01*
X950350D01*
X949577Y624168D01*
X948018Y625727D01*
X946150Y626500D01*
D02*
G37*
G36*
X943610D02*
X941742Y625727D01*
X940183Y624168D01*
X939410Y622300D01*
X943610D01*
Y626500D01*
D02*
G37*
G36*
X921485Y621380D02*
X917285D01*
Y617180D01*
X919153Y617953D01*
X920711Y619512D01*
X921485Y621380D01*
D02*
G37*
G36*
X914745D02*
X910544D01*
X911318Y619512D01*
X912877Y617953D01*
X914745Y617180D01*
Y621380D01*
D02*
G37*
G36*
X950350Y619760D02*
X946150D01*
Y615560D01*
X948018Y616333D01*
X949577Y617892D01*
X950350Y619760D01*
D02*
G37*
G36*
X943610D02*
X939410D01*
X940183Y617892D01*
X941742Y616333D01*
X943610Y615560D01*
Y619760D01*
D02*
G37*
G36*
X856829Y624030D02*
X855131D01*
X853561Y623380D01*
X852360Y622179D01*
X851710Y620609D01*
Y618911D01*
X852360Y617341D01*
X853561Y616140D01*
X855131Y615490D01*
X856829D01*
X858399Y616140D01*
X859600Y617341D01*
X860250Y618911D01*
Y620609D01*
X859600Y622179D01*
X858399Y623380D01*
X856829Y624030D01*
D02*
G37*
G36*
X771183Y613156D02*
Y608955D01*
X775383D01*
X774610Y610823D01*
X773051Y612382D01*
X771183Y613156D01*
D02*
G37*
G36*
X768643D02*
X766775Y612382D01*
X765216Y610823D01*
X764443Y608955D01*
X768643D01*
Y613156D01*
D02*
G37*
G36*
X610449Y612600D02*
X608751D01*
X607181Y611950D01*
X605980Y610749D01*
X605330Y609179D01*
Y607481D01*
X605980Y605911D01*
X607181Y604710D01*
X608751Y604060D01*
X610449D01*
X612019Y604710D01*
X613220Y605911D01*
X613870Y607481D01*
Y609179D01*
X613220Y610749D01*
X612019Y611950D01*
X610449Y612600D01*
D02*
G37*
G36*
X668869Y612600D02*
X667171D01*
X665601Y611950D01*
X664400Y610749D01*
X663750Y609179D01*
Y607481D01*
X664400Y605911D01*
X665601Y604710D01*
X667171Y604060D01*
X668869D01*
X670439Y604710D01*
X671640Y605911D01*
X672290Y607481D01*
Y609179D01*
X671640Y610749D01*
X670439Y611950D01*
X668869Y612600D01*
D02*
G37*
G36*
X775383Y606415D02*
X771183D01*
Y602215D01*
X773051Y602989D01*
X774610Y604547D01*
X775383Y606415D01*
D02*
G37*
G36*
X768643D02*
X764443D01*
X765216Y604547D01*
X766775Y602989D01*
X768643Y602215D01*
Y606415D01*
D02*
G37*
G36*
X792365Y610570D02*
X790667D01*
X789097Y609920D01*
X787896Y608719D01*
X787246Y607149D01*
Y605451D01*
X787896Y603881D01*
X789097Y602680D01*
X790667Y602030D01*
X792365D01*
X793935Y602680D01*
X795136Y603881D01*
X795786Y605451D01*
Y607149D01*
X795136Y608719D01*
X793935Y609920D01*
X792365Y610570D01*
D02*
G37*
G36*
X830962Y609503D02*
X829264D01*
X827694Y608853D01*
X826493Y607652D01*
X825843Y606082D01*
Y604384D01*
X826493Y602814D01*
X827694Y601613D01*
X827931Y601515D01*
X827678Y600245D01*
X826982D01*
X825413Y599595D01*
X824212Y598394D01*
X823562Y596824D01*
Y595126D01*
X824212Y593556D01*
X825413Y592355D01*
X826982Y591705D01*
X828681D01*
X830250Y592355D01*
X831452Y593556D01*
X832102Y595126D01*
Y596824D01*
X831452Y598394D01*
X830250Y599595D01*
X830014Y599693D01*
X830267Y600963D01*
X830962D01*
X832532Y601613D01*
X832559Y601640D01*
X834057Y601342D01*
X834253Y600869D01*
X835454Y599668D01*
X837023Y599018D01*
X838722D01*
X840292Y599668D01*
X840752Y600128D01*
X842200Y599951D01*
X843401Y598750D01*
X844971Y598100D01*
X846669D01*
X848239Y598750D01*
X848636Y599147D01*
X850126Y598868D01*
X851328Y597667D01*
X852897Y597017D01*
X854596D01*
X856165Y597667D01*
X857366Y598868D01*
X858016Y600438D01*
Y602136D01*
X857366Y603706D01*
X856165Y604907D01*
X854596Y605557D01*
X852897D01*
X851328Y604907D01*
X850930Y604510D01*
X849440Y604789D01*
X848239Y605990D01*
X846669Y606640D01*
X844971D01*
X843401Y605990D01*
X842941Y605529D01*
X841493Y605706D01*
X840292Y606908D01*
X838722Y607558D01*
X837023D01*
X835454Y606908D01*
X835427Y606880D01*
X833929Y607178D01*
X833733Y607652D01*
X832532Y608853D01*
X830962Y609503D01*
D02*
G37*
G36*
X590550Y601100D02*
Y596900D01*
X594750D01*
X593977Y598768D01*
X592418Y600327D01*
X590550Y601100D01*
D02*
G37*
G36*
X588010D02*
X586142Y600327D01*
X584583Y598768D01*
X583810Y596900D01*
X588010D01*
Y601100D01*
D02*
G37*
G36*
X806029Y612600D02*
X804331D01*
X802761Y611950D01*
X801560Y610749D01*
X800910Y609179D01*
Y607481D01*
X801560Y605911D01*
X802761Y604710D01*
X804000Y604197D01*
X803768Y603027D01*
X803768D01*
X803768Y603027D01*
X802982Y602927D01*
X802621Y602777D01*
X801413Y602277D01*
X800212Y601076D01*
X799562Y599506D01*
Y597807D01*
X800212Y596238D01*
X801413Y595037D01*
X802982Y594387D01*
X804681D01*
X806251Y595037D01*
X807452Y596238D01*
X808102Y597807D01*
Y599506D01*
X807452Y601076D01*
X806251Y602277D01*
X805011Y602790D01*
X805244Y603959D01*
X805244D01*
X805244Y603959D01*
X806029Y604060D01*
X806390Y604210D01*
X807599Y604710D01*
X808800Y605911D01*
X809450Y607481D01*
Y609179D01*
X808800Y610749D01*
X807599Y611950D01*
X806029Y612600D01*
D02*
G37*
G36*
X785709Y602440D02*
X784011D01*
X782441Y601790D01*
X781240Y600589D01*
X780590Y599019D01*
Y597321D01*
X781240Y595751D01*
X782441Y594550D01*
X784011Y593900D01*
X785709D01*
X787279Y594550D01*
X788480Y595751D01*
X789130Y597321D01*
Y599019D01*
X788480Y600589D01*
X787279Y601790D01*
X785709Y602440D01*
D02*
G37*
G36*
X818962Y609428D02*
X817264D01*
X815694Y608778D01*
X814493Y607577D01*
X813843Y606008D01*
Y604309D01*
X814493Y602740D01*
X814059Y601378D01*
X813413Y601111D01*
X812212Y599909D01*
X811562Y598340D01*
Y596641D01*
X812212Y595072D01*
X813413Y593871D01*
X814982Y593221D01*
X816681D01*
X818251Y593871D01*
X819452Y595072D01*
X820102Y596641D01*
Y598340D01*
X819452Y599909D01*
X819886Y601271D01*
X820532Y601539D01*
X821733Y602740D01*
X822383Y604309D01*
Y606008D01*
X821733Y607577D01*
X820532Y608778D01*
X818962Y609428D01*
D02*
G37*
G36*
X594750Y594360D02*
X590550D01*
Y590160D01*
X592418Y590933D01*
X593977Y592492D01*
X594750Y594360D01*
D02*
G37*
G36*
X588010D02*
X583810D01*
X584583Y592492D01*
X586142Y590933D01*
X588010Y590160D01*
Y594360D01*
D02*
G37*
G36*
X614259Y593550D02*
X612561D01*
X610991Y592900D01*
X609790Y591699D01*
X609140Y590129D01*
Y588431D01*
X609790Y586861D01*
X610991Y585660D01*
X612561Y585010D01*
X614259D01*
X615829Y585660D01*
X617030Y586861D01*
X617680Y588431D01*
Y590129D01*
X617030Y591699D01*
X615829Y592900D01*
X614259Y593550D01*
D02*
G37*
G36*
X901700Y588400D02*
Y584200D01*
X905900D01*
X905127Y586068D01*
X903568Y587627D01*
X901700Y588400D01*
D02*
G37*
G36*
X899160D02*
X897292Y587627D01*
X895733Y586068D01*
X894960Y584200D01*
X899160D01*
Y588400D01*
D02*
G37*
G36*
X546100D02*
Y584200D01*
X550300D01*
X549527Y586068D01*
X547968Y587627D01*
X546100Y588400D01*
D02*
G37*
G36*
X543560D02*
X541692Y587627D01*
X540133Y586068D01*
X539360Y584200D01*
X543560D01*
Y588400D01*
D02*
G37*
G36*
X862057Y589083D02*
X860358D01*
X858789Y588433D01*
X857588Y587232D01*
X856937Y585662D01*
Y583964D01*
X857588Y582394D01*
X858789Y581193D01*
X860358Y580543D01*
X862057D01*
X863626Y581193D01*
X864827Y582394D01*
X865477Y583964D01*
Y585662D01*
X864827Y587232D01*
X863626Y588433D01*
X862057Y589083D01*
D02*
G37*
G36*
X1057489Y588470D02*
X1055791D01*
X1054221Y587820D01*
X1053020Y586619D01*
X1052370Y585049D01*
Y583351D01*
X1053020Y581781D01*
X1054221Y580580D01*
X1055791Y579930D01*
X1057489D01*
X1059059Y580580D01*
X1060260Y581781D01*
X1060910Y583351D01*
Y585049D01*
X1060260Y586619D01*
X1059059Y587820D01*
X1057489Y588470D01*
D02*
G37*
G36*
X691729Y587200D02*
X690031D01*
X688461Y586550D01*
X687260Y585349D01*
X686610Y583779D01*
Y582081D01*
X687260Y580511D01*
X688461Y579310D01*
X690031Y578660D01*
X691729D01*
X693299Y579310D01*
X694500Y580511D01*
X695150Y582081D01*
Y583779D01*
X694500Y585349D01*
X693299Y586550D01*
X691729Y587200D01*
D02*
G37*
G36*
X1120989Y587200D02*
X1119291D01*
X1117721Y586550D01*
X1116520Y585349D01*
X1115870Y583779D01*
Y582081D01*
X1116520Y580511D01*
X1117721Y579310D01*
X1119291Y578660D01*
X1120989D01*
X1122559Y579310D01*
X1123760Y580511D01*
X1124410Y582081D01*
Y583779D01*
X1123760Y585349D01*
X1122559Y586550D01*
X1120989Y587200D01*
D02*
G37*
G36*
X800100Y582050D02*
Y577850D01*
X804300D01*
X803527Y579718D01*
X801968Y581277D01*
X800100Y582050D01*
D02*
G37*
G36*
X797560D02*
X795692Y581277D01*
X794133Y579718D01*
X793360Y577850D01*
X797560D01*
Y582050D01*
D02*
G37*
G36*
X905900Y581660D02*
X901700D01*
Y577460D01*
X903568Y578233D01*
X905127Y579792D01*
X905900Y581660D01*
D02*
G37*
G36*
X899160D02*
X894960D01*
X895733Y579792D01*
X897292Y578233D01*
X899160Y577460D01*
Y581660D01*
D02*
G37*
G36*
X550300D02*
X546100D01*
Y577460D01*
X547968Y578233D01*
X549527Y579792D01*
X550300Y581660D01*
D02*
G37*
G36*
X543560D02*
X539360D01*
X540133Y579792D01*
X541692Y578233D01*
X543560Y577460D01*
Y581660D01*
D02*
G37*
G36*
X879689Y582120D02*
X877991D01*
X876421Y581470D01*
X875220Y580269D01*
X874570Y578699D01*
Y577001D01*
X875220Y575431D01*
X876421Y574230D01*
X877991Y573580D01*
X879689D01*
X881259Y574230D01*
X882460Y575431D01*
X883110Y577001D01*
Y578699D01*
X882460Y580269D01*
X881259Y581470D01*
X879689Y582120D01*
D02*
G37*
G36*
X1023620Y576970D02*
Y572770D01*
X1027820D01*
X1027047Y574638D01*
X1025488Y576197D01*
X1023620Y576970D01*
D02*
G37*
G36*
X1021080D02*
X1019212Y576197D01*
X1017653Y574638D01*
X1016880Y572770D01*
X1021080D01*
Y576970D01*
D02*
G37*
G36*
X804300Y575310D02*
X800100D01*
Y571110D01*
X801968Y571883D01*
X803527Y573442D01*
X804300Y575310D01*
D02*
G37*
G36*
X797560D02*
X793360D01*
X794133Y573442D01*
X795692Y571883D01*
X797560Y571110D01*
Y575310D01*
D02*
G37*
G36*
X412750Y574430D02*
Y570230D01*
X416950D01*
X416177Y572098D01*
X414618Y573657D01*
X412750Y574430D01*
D02*
G37*
G36*
X410210D02*
X408342Y573657D01*
X406783Y572098D01*
X406010Y570230D01*
X410210D01*
Y574430D01*
D02*
G37*
G36*
X361950D02*
Y570230D01*
X366150D01*
X365377Y572098D01*
X363818Y573657D01*
X361950Y574430D01*
D02*
G37*
G36*
X359410D02*
X357542Y573657D01*
X355983Y572098D01*
X355210Y570230D01*
X359410D01*
Y574430D01*
D02*
G37*
G36*
X1085850Y570620D02*
Y566420D01*
X1090050D01*
X1089277Y568288D01*
X1087718Y569847D01*
X1085850Y570620D01*
D02*
G37*
G36*
X1083310D02*
X1081442Y569847D01*
X1079883Y568288D01*
X1079110Y566420D01*
X1083310D01*
Y570620D01*
D02*
G37*
G36*
X1027820Y570230D02*
X1023620D01*
Y566030D01*
X1025488Y566803D01*
X1027047Y568362D01*
X1027820Y570230D01*
D02*
G37*
G36*
X1021080D02*
X1016880D01*
X1017653Y568362D01*
X1019212Y566803D01*
X1021080Y566030D01*
Y570230D01*
D02*
G37*
G36*
X615529Y574500D02*
X613831D01*
X612261Y573850D01*
X611060Y572649D01*
X610410Y571079D01*
Y569381D01*
X611060Y567811D01*
X612261Y566610D01*
X613831Y565960D01*
X615529D01*
X617099Y566610D01*
X618300Y567811D01*
X618950Y569381D01*
Y571079D01*
X618300Y572649D01*
X617099Y573850D01*
X615529Y574500D01*
D02*
G37*
G36*
X843280Y568080D02*
Y563880D01*
X847480D01*
X846707Y565748D01*
X845148Y567307D01*
X843280Y568080D01*
D02*
G37*
G36*
X840740D02*
X838872Y567307D01*
X837313Y565748D01*
X836540Y563880D01*
X840740D01*
Y568080D01*
D02*
G37*
G36*
X539750D02*
Y563880D01*
X543950D01*
X543177Y565748D01*
X541618Y567307D01*
X539750Y568080D01*
D02*
G37*
G36*
X537210D02*
X535342Y567307D01*
X533783Y565748D01*
X533010Y563880D01*
X537210D01*
Y568080D01*
D02*
G37*
G36*
X595630Y568080D02*
Y563880D01*
X599830D01*
X599057Y565748D01*
X597498Y567307D01*
X595630Y568080D01*
D02*
G37*
G36*
X593090D02*
X591222Y567307D01*
X589663Y565748D01*
X588890Y563880D01*
X593090D01*
Y568080D01*
D02*
G37*
G36*
X416950Y567690D02*
X412750D01*
Y563490D01*
X414618Y564263D01*
X416177Y565822D01*
X416950Y567690D01*
D02*
G37*
G36*
X410210D02*
X406010D01*
X406783Y565822D01*
X408342Y564263D01*
X410210Y563490D01*
Y567690D01*
D02*
G37*
G36*
X366150D02*
X361950D01*
Y563490D01*
X363818Y564263D01*
X365377Y565822D01*
X366150Y567690D01*
D02*
G37*
G36*
X359410D02*
X355210D01*
X355983Y565822D01*
X357542Y564263D01*
X359410Y563490D01*
Y567690D01*
D02*
G37*
G36*
X1090050Y563880D02*
X1085850D01*
Y559680D01*
X1087718Y560453D01*
X1089277Y562012D01*
X1090050Y563880D01*
D02*
G37*
G36*
X1083310D02*
X1079110D01*
X1079883Y562012D01*
X1081442Y560453D01*
X1083310Y559680D01*
Y563880D01*
D02*
G37*
G36*
X870799Y574500D02*
X869101D01*
X867531Y573850D01*
X866330Y572649D01*
X865680Y571079D01*
Y569381D01*
X866330Y567811D01*
X866444Y567698D01*
X865918Y566428D01*
X865243D01*
X863674Y565778D01*
X862472Y564576D01*
X861822Y563007D01*
Y561308D01*
X862472Y559739D01*
X863674Y558538D01*
X865243Y557888D01*
X866942D01*
X868511Y558538D01*
X869712Y559739D01*
X870362Y561308D01*
Y563007D01*
X869712Y564576D01*
X869599Y564690D01*
X870125Y565960D01*
X870799D01*
X872369Y566610D01*
X873570Y567811D01*
X874220Y569381D01*
Y571079D01*
X873570Y572649D01*
X872369Y573850D01*
X870799Y574500D01*
D02*
G37*
G36*
X847480Y561340D02*
X843280D01*
Y557140D01*
X845148Y557913D01*
X846707Y559472D01*
X847480Y561340D01*
D02*
G37*
G36*
X840740D02*
X836540D01*
X837313Y559472D01*
X838872Y557913D01*
X840740Y557140D01*
Y561340D01*
D02*
G37*
G36*
X543950D02*
X539750D01*
Y557140D01*
X541618Y557913D01*
X543177Y559472D01*
X543950Y561340D01*
D02*
G37*
G36*
X537210D02*
X533010D01*
X533783Y559472D01*
X535342Y557913D01*
X537210Y557140D01*
Y561340D01*
D02*
G37*
G36*
X599830Y561340D02*
X595630D01*
Y557140D01*
X597498Y557913D01*
X599057Y559472D01*
X599830Y561340D01*
D02*
G37*
G36*
X593090D02*
X588890D01*
X589663Y559472D01*
X591222Y557913D01*
X593090Y557140D01*
Y561340D01*
D02*
G37*
G36*
X944880Y559190D02*
Y554990D01*
X949080D01*
X948307Y556858D01*
X946748Y558417D01*
X944880Y559190D01*
D02*
G37*
G36*
X942340D02*
X940472Y558417D01*
X938913Y556858D01*
X938140Y554990D01*
X942340D01*
Y559190D01*
D02*
G37*
G36*
X1023199Y563070D02*
X1021501D01*
X1019931Y562420D01*
X1018730Y561219D01*
X1018080Y559649D01*
Y557951D01*
X1018730Y556381D01*
X1019931Y555180D01*
X1021501Y554530D01*
X1023199D01*
X1024769Y555180D01*
X1025970Y556381D01*
X1026620Y557951D01*
Y559649D01*
X1025970Y561219D01*
X1024769Y562420D01*
X1023199Y563070D01*
D02*
G37*
G36*
X750160Y608114D02*
X748461D01*
X746891Y607464D01*
X745690Y606263D01*
X745040Y604693D01*
Y602995D01*
X745690Y601425D01*
X746416Y600700D01*
X746675Y599749D01*
X746372Y599084D01*
X745552Y598264D01*
X744902Y596694D01*
Y594996D01*
X745552Y593426D01*
X746753Y592225D01*
X748322Y591575D01*
X748351D01*
X749199Y590305D01*
X749000Y589824D01*
Y588373D01*
X748972Y588099D01*
X748009Y587200D01*
X747181D01*
X745611Y586550D01*
X744410Y585349D01*
X743760Y583779D01*
Y582081D01*
X744410Y580511D01*
X745611Y579310D01*
X747181Y578660D01*
X748719D01*
X749018Y578397D01*
X749083Y578315D01*
X749532Y577556D01*
X749000Y576271D01*
Y574573D01*
X749266Y573930D01*
X748606Y572660D01*
X747037Y572010D01*
X745835Y570809D01*
X745185Y569240D01*
Y567541D01*
X745835Y565972D01*
X745961Y565846D01*
X745663Y564348D01*
X745305Y564200D01*
X744104Y562999D01*
X743454Y561429D01*
Y559731D01*
X744104Y558161D01*
X745305Y556960D01*
X746875Y556310D01*
X746916D01*
X747765Y555040D01*
X747570Y554569D01*
Y552871D01*
X748220Y551301D01*
X749421Y550100D01*
X750991Y549450D01*
X752689D01*
X754259Y550100D01*
X755460Y551301D01*
X756110Y552871D01*
Y554569D01*
X755460Y556139D01*
X754259Y557340D01*
X752689Y557990D01*
X752648D01*
X751799Y559260D01*
X751994Y559731D01*
Y561429D01*
X751344Y562999D01*
X751218Y563124D01*
X751516Y564622D01*
X751874Y564770D01*
X753075Y565972D01*
X753725Y567541D01*
Y569240D01*
X753459Y569882D01*
X754119Y571152D01*
X755689Y571802D01*
X756890Y573003D01*
X757540Y574573D01*
Y576271D01*
X756890Y577841D01*
X755689Y579042D01*
X754119Y579692D01*
X752581D01*
X752282Y579955D01*
X752217Y580037D01*
X751768Y580796D01*
X752300Y582081D01*
Y583531D01*
X752328Y583806D01*
X753291Y584705D01*
X754119D01*
X755689Y585355D01*
X756890Y586556D01*
X757540Y588125D01*
Y589824D01*
X756890Y591394D01*
X755689Y592595D01*
X754119Y593245D01*
X754091D01*
X753242Y594515D01*
X753442Y594996D01*
Y596694D01*
X752792Y598264D01*
X752066Y598989D01*
X751807Y599940D01*
X752110Y600605D01*
X752930Y601425D01*
X753580Y602995D01*
Y604693D01*
X752930Y606263D01*
X751729Y607464D01*
X750160Y608114D01*
D02*
G37*
G36*
X949080Y552450D02*
X944880D01*
Y548250D01*
X946748Y549023D01*
X948307Y550582D01*
X949080Y552450D01*
D02*
G37*
G36*
X942340D02*
X938140D01*
X938913Y550582D01*
X940472Y549023D01*
X942340Y548250D01*
Y552450D01*
D02*
G37*
G36*
X569809Y556720D02*
X568111D01*
X566541Y556070D01*
X565340Y554869D01*
X564690Y553299D01*
Y551601D01*
X565340Y550031D01*
X566541Y548830D01*
X568111Y548180D01*
X569809D01*
X571379Y548830D01*
X572580Y550031D01*
X573230Y551601D01*
Y553299D01*
X572580Y554869D01*
X571379Y556070D01*
X569809Y556720D01*
D02*
G37*
G36*
X610449Y555450D02*
X608751D01*
X607181Y554800D01*
X605980Y553599D01*
X605330Y552029D01*
Y550331D01*
X605980Y548761D01*
X607181Y547560D01*
X608751Y546910D01*
X610449D01*
X612019Y547560D01*
X613220Y548761D01*
X613870Y550331D01*
Y552029D01*
X613220Y553599D01*
X612019Y554800D01*
X610449Y555450D01*
D02*
G37*
G36*
X519430Y550300D02*
Y546100D01*
X523630D01*
X522857Y547968D01*
X521298Y549527D01*
X519430Y550300D01*
D02*
G37*
G36*
X516890D02*
X515022Y549527D01*
X513463Y547968D01*
X512690Y546100D01*
X516890D01*
Y550300D01*
D02*
G37*
G36*
X413363Y554660D02*
X412850D01*
Y542390D01*
X425120D01*
Y542903D01*
X424197Y546346D01*
X422415Y549434D01*
X419894Y551955D01*
X416806Y553737D01*
X413363Y554660D01*
D02*
G37*
G36*
X362363D02*
X361850D01*
Y542390D01*
X374120D01*
Y542903D01*
X373197Y546346D01*
X371415Y549434D01*
X368894Y551955D01*
X365806Y553737D01*
X362363Y554660D01*
D02*
G37*
G36*
X410310D02*
X409797D01*
X406354Y553737D01*
X403266Y551955D01*
X400745Y549434D01*
X398963Y546346D01*
X398040Y542903D01*
Y542390D01*
X410310D01*
Y554660D01*
D02*
G37*
G36*
X359310D02*
X358797D01*
X355354Y553737D01*
X352266Y551955D01*
X349745Y549434D01*
X347963Y546346D01*
X347040Y542903D01*
Y542390D01*
X359310D01*
Y554660D01*
D02*
G37*
G36*
X588859Y549100D02*
X587161D01*
X585591Y548450D01*
X584390Y547249D01*
X583740Y545679D01*
Y543981D01*
X584390Y542411D01*
X585591Y541210D01*
X587161Y540560D01*
X588859D01*
X590429Y541210D01*
X591630Y542411D01*
X592280Y543981D01*
Y545679D01*
X591630Y547249D01*
X590429Y548450D01*
X588859Y549100D01*
D02*
G37*
G36*
X523630Y543560D02*
X519430D01*
Y539360D01*
X521298Y540133D01*
X522857Y541692D01*
X523630Y543560D01*
D02*
G37*
G36*
X516890D02*
X512690D01*
X513463Y541692D01*
X515022Y540133D01*
X516890Y539360D01*
Y543560D01*
D02*
G37*
G36*
X771739Y553320D02*
X770041D01*
X768471Y552670D01*
X767270Y551469D01*
X766620Y549899D01*
Y548201D01*
X767270Y546631D01*
X768471Y545430D01*
X770041Y544780D01*
X770341D01*
X770615Y544484D01*
X771064Y543510D01*
X770554Y542277D01*
Y540578D01*
X771204Y539009D01*
X772405Y537807D01*
X773974Y537157D01*
X775673D01*
X777242Y537807D01*
X778444Y539009D01*
X779094Y540578D01*
Y542277D01*
X778444Y543846D01*
X777242Y545047D01*
X775673Y545697D01*
X775372D01*
X775099Y545993D01*
X774649Y546967D01*
X775160Y548201D01*
Y549899D01*
X774510Y551469D01*
X773309Y552670D01*
X771739Y553320D01*
D02*
G37*
G36*
X842010Y538870D02*
Y534670D01*
X846210D01*
X845437Y536538D01*
X843878Y538097D01*
X842010Y538870D01*
D02*
G37*
G36*
X839470D02*
X837602Y538097D01*
X836043Y536538D01*
X835270Y534670D01*
X839470D01*
Y538870D01*
D02*
G37*
G36*
X798830D02*
Y534670D01*
X803030D01*
X802257Y536538D01*
X800698Y538097D01*
X798830Y538870D01*
D02*
G37*
G36*
X796290D02*
X794422Y538097D01*
X792863Y536538D01*
X792090Y534670D01*
X796290D01*
Y538870D01*
D02*
G37*
G36*
X846210Y532130D02*
X842010D01*
Y527930D01*
X843878Y528703D01*
X845437Y530262D01*
X846210Y532130D01*
D02*
G37*
G36*
X839470D02*
X835270D01*
X836043Y530262D01*
X837602Y528703D01*
X839470Y527930D01*
Y532130D01*
D02*
G37*
G36*
X803030D02*
X798830D01*
Y527930D01*
X800698Y528703D01*
X802257Y530262D01*
X803030Y532130D01*
D02*
G37*
G36*
X796290D02*
X792090D01*
X792863Y530262D01*
X794422Y528703D01*
X796290Y527930D01*
Y532130D01*
D02*
G37*
G36*
X425120Y539850D02*
X412850D01*
Y527580D01*
X413363D01*
X416806Y528503D01*
X419894Y530285D01*
X422415Y532806D01*
X424197Y535894D01*
X425120Y539337D01*
Y539850D01*
D02*
G37*
G36*
X410310D02*
X398040D01*
Y539337D01*
X398963Y535894D01*
X400745Y532806D01*
X403266Y530285D01*
X406354Y528503D01*
X409797Y527580D01*
X410310D01*
Y539850D01*
D02*
G37*
G36*
X374120D02*
X361850D01*
Y527580D01*
X362363D01*
X365806Y528503D01*
X368894Y530285D01*
X371415Y532806D01*
X373197Y535894D01*
X374120Y539337D01*
Y539850D01*
D02*
G37*
G36*
X359310D02*
X347040D01*
Y539337D01*
X347963Y535894D01*
X349745Y532806D01*
X352266Y530285D01*
X355354Y528503D01*
X358797Y527580D01*
X359310D01*
Y539850D01*
D02*
G37*
G36*
X490220Y531250D02*
Y527050D01*
X494420D01*
X493647Y528918D01*
X492088Y530477D01*
X490220Y531250D01*
D02*
G37*
G36*
X487680D02*
X485812Y530477D01*
X484253Y528918D01*
X483480Y527050D01*
X487680D01*
Y531250D01*
D02*
G37*
G36*
X697312Y529980D02*
Y525780D01*
X701512D01*
X700739Y527648D01*
X699180Y529207D01*
X697312Y529980D01*
D02*
G37*
G36*
X694772D02*
X692904Y529207D01*
X691345Y527648D01*
X690572Y525780D01*
X694772D01*
Y529980D01*
D02*
G37*
G36*
X671830D02*
Y525780D01*
X676030D01*
X675257Y527648D01*
X673698Y529207D01*
X671830Y529980D01*
D02*
G37*
G36*
X669290D02*
X667422Y529207D01*
X665863Y527648D01*
X665090Y525780D01*
X669290D01*
Y529980D01*
D02*
G37*
G36*
X764119Y533860D02*
X762421D01*
X760851Y533210D01*
X759650Y532009D01*
X759000Y530439D01*
Y528741D01*
X759650Y527171D01*
X760851Y525970D01*
X762421Y525320D01*
X764119D01*
X765689Y525970D01*
X766890Y527171D01*
X767540Y528741D01*
Y530439D01*
X766890Y532009D01*
X765689Y533210D01*
X764119Y533860D01*
D02*
G37*
G36*
X947420Y528710D02*
Y524510D01*
X951620D01*
X950847Y526378D01*
X949288Y527937D01*
X947420Y528710D01*
D02*
G37*
G36*
X944880D02*
X943012Y527937D01*
X941453Y526378D01*
X940680Y524510D01*
X944880D01*
Y528710D01*
D02*
G37*
G36*
X552029Y532590D02*
X550331D01*
X548761Y531940D01*
X547560Y530739D01*
X546910Y529169D01*
Y527471D01*
X547560Y525901D01*
X548761Y524700D01*
X550331Y524050D01*
X552029D01*
X553599Y524700D01*
X554800Y525901D01*
X555450Y527471D01*
Y529169D01*
X554800Y530739D01*
X553599Y531940D01*
X552029Y532590D01*
D02*
G37*
G36*
X888579Y530050D02*
X886881D01*
X885311Y529400D01*
X884110Y528199D01*
X883460Y526629D01*
Y524931D01*
X884110Y523361D01*
X885311Y522160D01*
X886881Y521510D01*
X888579D01*
X890149Y522160D01*
X891350Y523361D01*
X892000Y524931D01*
Y526629D01*
X891350Y528199D01*
X890149Y529400D01*
X888579Y530050D01*
D02*
G37*
G36*
X494420Y524510D02*
X490220D01*
Y520310D01*
X492088Y521083D01*
X493647Y522642D01*
X494420Y524510D01*
D02*
G37*
G36*
X487680D02*
X483480D01*
X484253Y522642D01*
X485812Y521083D01*
X487680Y520310D01*
Y524510D01*
D02*
G37*
G36*
X701512Y523240D02*
X697312D01*
Y519040D01*
X699180Y519813D01*
X700739Y521372D01*
X701512Y523240D01*
D02*
G37*
G36*
X694772D02*
X690572D01*
X691345Y521372D01*
X692904Y519813D01*
X694772Y519040D01*
Y523240D01*
D02*
G37*
G36*
X676030D02*
X671830D01*
Y519040D01*
X673698Y519813D01*
X675257Y521372D01*
X676030Y523240D01*
D02*
G37*
G36*
X669290D02*
X665090D01*
X665863Y521372D01*
X667422Y519813D01*
X669290Y519040D01*
Y523240D01*
D02*
G37*
G36*
X951620Y521970D02*
X947420D01*
Y517770D01*
X949288Y518543D01*
X950847Y520102D01*
X951620Y521970D01*
D02*
G37*
G36*
X944880D02*
X940680D01*
X941453Y520102D01*
X943012Y518543D01*
X944880Y517770D01*
Y521970D01*
D02*
G37*
G36*
X609179Y524970D02*
X607481D01*
X605911Y524320D01*
X604710Y523119D01*
X604060Y521549D01*
Y519851D01*
X604710Y518281D01*
X605911Y517080D01*
X607481Y516430D01*
X609179D01*
X610749Y517080D01*
X611950Y518281D01*
X612600Y519851D01*
Y521549D01*
X611950Y523119D01*
X610749Y524320D01*
X609179Y524970D01*
D02*
G37*
G36*
X813539Y517350D02*
X811841D01*
X810271Y516700D01*
X809070Y515499D01*
X808420Y513929D01*
Y512231D01*
X809070Y510661D01*
X810271Y509460D01*
X811841Y508810D01*
X813539D01*
X815109Y509460D01*
X816310Y510661D01*
X816960Y512231D01*
Y513929D01*
X816310Y515499D01*
X815109Y516700D01*
X813539Y517350D01*
D02*
G37*
G36*
X797139Y516080D02*
X795441D01*
X793871Y515430D01*
X792670Y514229D01*
X792020Y512659D01*
Y510961D01*
X792670Y509391D01*
X793871Y508190D01*
X795441Y507540D01*
X797139D01*
X798709Y508190D01*
X799910Y509391D01*
X800560Y510961D01*
Y512659D01*
X799910Y514229D01*
X798709Y515430D01*
X797139Y516080D01*
D02*
G37*
G36*
X690459Y514810D02*
X688761D01*
X687191Y514160D01*
X685990Y512959D01*
X685340Y511389D01*
Y509691D01*
X685990Y508121D01*
X687191Y506920D01*
X688761Y506270D01*
X690459D01*
X692029Y506920D01*
X693230Y508121D01*
X693880Y509691D01*
Y511389D01*
X693230Y512959D01*
X692029Y514160D01*
X690459Y514810D01*
D02*
G37*
G36*
X826729Y508460D02*
X825031D01*
X823461Y507810D01*
X822260Y506609D01*
X821887Y505708D01*
X820987Y505101D01*
X820390Y505161D01*
X819245Y505635D01*
X817546D01*
X815977Y504985D01*
X814775Y503784D01*
X814125Y502215D01*
Y500516D01*
X814775Y498946D01*
X815977Y497745D01*
X817546Y497095D01*
X819245D01*
X820814Y497745D01*
X822015Y498946D01*
X822388Y499847D01*
X823289Y500454D01*
X823885Y500395D01*
X825031Y499920D01*
X826729D01*
X828299Y500570D01*
X829500Y501771D01*
X830150Y503341D01*
Y505039D01*
X829500Y506609D01*
X828299Y507810D01*
X826729Y508460D01*
D02*
G37*
G36*
X785709Y513540D02*
X784011D01*
X782441Y512890D01*
X781240Y511689D01*
X780590Y510119D01*
Y508421D01*
X781240Y506851D01*
X782441Y505650D01*
X784011Y505000D01*
X785709D01*
X787279Y505650D01*
X788480Y506851D01*
X789130Y508421D01*
Y510119D01*
X788480Y511689D01*
X787279Y512890D01*
X785709Y513540D01*
D02*
G37*
G36*
X387630Y527390D02*
X384530D01*
X381537Y526588D01*
X378853Y525038D01*
X376662Y522847D01*
X375112Y520163D01*
X374310Y517170D01*
Y514070D01*
X375112Y511077D01*
X376662Y508393D01*
X378853Y506202D01*
X381537Y504652D01*
X384530Y503850D01*
X387630D01*
X390623Y504652D01*
X393307Y506202D01*
X395498Y508393D01*
X397048Y511077D01*
X397850Y514070D01*
Y517170D01*
X397048Y520163D01*
X395498Y522847D01*
X393307Y525038D01*
X390623Y526588D01*
X387630Y527390D01*
D02*
G37*
G36*
X969859Y512270D02*
X968161D01*
X966591Y511620D01*
X965390Y510419D01*
X964740Y508849D01*
Y507151D01*
X965390Y505581D01*
X966591Y504380D01*
X968161Y503730D01*
X969859D01*
X971429Y504380D01*
X972630Y505581D01*
X973280Y507151D01*
Y508849D01*
X972630Y510419D01*
X971429Y511620D01*
X969859Y512270D01*
D02*
G37*
G36*
X847939Y508460D02*
X846241D01*
X844671Y507810D01*
X843470Y506609D01*
X842820Y505039D01*
Y503458D01*
X842760Y503418D01*
X842318Y503183D01*
X841647Y502972D01*
X840619Y504000D01*
X839049Y504650D01*
X837351D01*
X835781Y504000D01*
X834580Y502799D01*
X833930Y501229D01*
Y499531D01*
X834580Y497961D01*
X835781Y496760D01*
X837351Y496110D01*
X839049D01*
X840619Y496760D01*
X841820Y497961D01*
X842470Y499531D01*
Y501112D01*
X842530Y501152D01*
X842972Y501387D01*
X843643Y501598D01*
X844671Y500570D01*
X846241Y499920D01*
X847939D01*
X849509Y500570D01*
X850710Y501771D01*
X851360Y503341D01*
Y505039D01*
X850710Y506609D01*
X849509Y507810D01*
X847939Y508460D01*
D02*
G37*
G36*
X925830Y507120D02*
Y502920D01*
X930030D01*
X929257Y504788D01*
X927698Y506347D01*
X925830Y507120D01*
D02*
G37*
G36*
X923290D02*
X921422Y506347D01*
X919863Y504788D01*
X919090Y502920D01*
X923290D01*
Y507120D01*
D02*
G37*
G36*
X552283Y509730D02*
X550585D01*
X549015Y509080D01*
X547814Y507879D01*
X547164Y506309D01*
Y504611D01*
X547814Y503041D01*
X549015Y501840D01*
X550585Y501190D01*
X552283D01*
X553853Y501840D01*
X555054Y503041D01*
X555704Y504611D01*
Y506309D01*
X555054Y507879D01*
X553853Y509080D01*
X552283Y509730D01*
D02*
G37*
G36*
X895000Y503310D02*
Y499110D01*
X899200D01*
X898427Y500978D01*
X896868Y502537D01*
X895000Y503310D01*
D02*
G37*
G36*
X892460D02*
X890592Y502537D01*
X889033Y500978D01*
X888260Y499110D01*
X892460D01*
Y503310D01*
D02*
G37*
G36*
X746339Y505920D02*
X744641D01*
X743071Y505270D01*
X741870Y504069D01*
X741220Y502499D01*
Y500801D01*
X741870Y499231D01*
X743071Y498030D01*
X744641Y497380D01*
X746339D01*
X747909Y498030D01*
X749110Y499231D01*
X749760Y500801D01*
Y502499D01*
X749110Y504069D01*
X747909Y505270D01*
X746339Y505920D01*
D02*
G37*
G36*
X694269Y505540D02*
X692571D01*
X691001Y504890D01*
X689800Y503689D01*
X689150Y502119D01*
Y500421D01*
X689800Y498851D01*
X691001Y497650D01*
X692571Y497000D01*
X694269D01*
X695839Y497650D01*
X697040Y498851D01*
X697690Y500421D01*
Y502119D01*
X697040Y503689D01*
X695839Y504890D01*
X694269Y505540D01*
D02*
G37*
G36*
X930030Y500380D02*
X925830D01*
Y496180D01*
X927698Y496953D01*
X929257Y498512D01*
X930030Y500380D01*
D02*
G37*
G36*
X923290D02*
X919090D01*
X919863Y498512D01*
X921422Y496953D01*
X923290Y496180D01*
Y500380D01*
D02*
G37*
G36*
X610449Y504650D02*
X608751D01*
X607181Y504000D01*
X605980Y502799D01*
X605330Y501229D01*
Y499531D01*
X605980Y497961D01*
X607181Y496760D01*
X608751Y496110D01*
X610449D01*
X612019Y496760D01*
X613220Y497961D01*
X613870Y499531D01*
Y501229D01*
X613220Y502799D01*
X612019Y504000D01*
X610449Y504650D01*
D02*
G37*
G36*
X1106170Y499500D02*
Y495300D01*
X1110370D01*
X1109597Y497168D01*
X1108038Y498727D01*
X1106170Y499500D01*
D02*
G37*
G36*
X1103630D02*
X1101762Y498727D01*
X1100203Y497168D01*
X1099430Y495300D01*
X1103630D01*
Y499500D01*
D02*
G37*
G36*
X899200Y496570D02*
X895000D01*
Y492370D01*
X896868Y493143D01*
X898427Y494702D01*
X899200Y496570D01*
D02*
G37*
G36*
X892460D02*
X888260D01*
X889033Y494702D01*
X890592Y493143D01*
X892460Y492370D01*
Y496570D01*
D02*
G37*
G36*
X1009229Y500840D02*
X1007531D01*
X1005961Y500190D01*
X1004760Y498989D01*
X1004110Y497419D01*
Y495721D01*
X1004760Y494151D01*
X1005961Y492950D01*
X1007531Y492300D01*
X1009229D01*
X1010799Y492950D01*
X1012000Y494151D01*
X1012650Y495721D01*
Y497419D01*
X1012000Y498989D01*
X1010799Y500190D01*
X1009229Y500840D01*
D02*
G37*
G36*
X413363Y503660D02*
X412850D01*
Y491390D01*
X425120D01*
Y491903D01*
X424197Y495346D01*
X422415Y498434D01*
X419894Y500955D01*
X416806Y502737D01*
X413363Y503660D01*
D02*
G37*
G36*
X362363D02*
X361850D01*
Y491390D01*
X374120D01*
Y491903D01*
X373197Y495346D01*
X371415Y498434D01*
X368894Y500955D01*
X365806Y502737D01*
X362363Y503660D01*
D02*
G37*
G36*
X410310D02*
X409797D01*
X406354Y502737D01*
X403266Y500955D01*
X400745Y498434D01*
X398963Y495346D01*
X398040Y491903D01*
Y491390D01*
X410310D01*
Y503660D01*
D02*
G37*
G36*
X359310D02*
X358797D01*
X355354Y502737D01*
X352266Y500955D01*
X349745Y498434D01*
X347963Y495346D01*
X347040Y491903D01*
Y491390D01*
X359310D01*
Y503660D01*
D02*
G37*
G36*
X1110370Y492760D02*
X1106170D01*
Y488560D01*
X1108038Y489333D01*
X1109597Y490892D01*
X1110370Y492760D01*
D02*
G37*
G36*
X1103630D02*
X1099430D01*
X1100203Y490892D01*
X1101762Y489333D01*
X1103630Y488560D01*
Y492760D01*
D02*
G37*
G36*
X872069Y493220D02*
X870371D01*
X868801Y492570D01*
X867600Y491369D01*
X866950Y489799D01*
Y488101D01*
X867600Y486531D01*
X868801Y485330D01*
X870371Y484680D01*
X872069D01*
X873639Y485330D01*
X874840Y486531D01*
X875490Y488101D01*
Y489799D01*
X874840Y491369D01*
X873639Y492570D01*
X872069Y493220D01*
D02*
G37*
G36*
X580710Y493035D02*
X579011D01*
X577442Y492385D01*
X576241Y491184D01*
X575591Y489614D01*
Y487915D01*
X576241Y486346D01*
X577442Y485145D01*
X579011Y484495D01*
X580710D01*
X582280Y485145D01*
X583481Y486346D01*
X584131Y487915D01*
Y489614D01*
X583481Y491184D01*
X582280Y492385D01*
X580710Y493035D01*
D02*
G37*
G36*
X596479Y491950D02*
X594781D01*
X593211Y491300D01*
X592010Y490099D01*
X591360Y488529D01*
Y486831D01*
X592010Y485261D01*
X593211Y484060D01*
X594781Y483410D01*
X596479D01*
X598049Y484060D01*
X599250Y485261D01*
X599900Y486831D01*
Y488529D01*
X599250Y490099D01*
X598049Y491300D01*
X596479Y491950D01*
D02*
G37*
G36*
X790789Y491950D02*
X789091D01*
X787521Y491300D01*
X786320Y490099D01*
X785670Y488529D01*
Y486831D01*
X786320Y485261D01*
X787521Y484060D01*
X789091Y483410D01*
X790789D01*
X792359Y484060D01*
X793560Y485261D01*
X794210Y486831D01*
Y488529D01*
X793560Y490099D01*
X792359Y491300D01*
X790789Y491950D01*
D02*
G37*
G36*
X694690Y486800D02*
Y482600D01*
X698890D01*
X698117Y484468D01*
X696558Y486027D01*
X694690Y486800D01*
D02*
G37*
G36*
X692150D02*
X690282Y486027D01*
X688723Y484468D01*
X687950Y482600D01*
X692150D01*
Y486800D01*
D02*
G37*
G36*
X506730Y482990D02*
Y478790D01*
X510930D01*
X510157Y480658D01*
X508598Y482217D01*
X506730Y482990D01*
D02*
G37*
G36*
X504190D02*
X502322Y482217D01*
X500763Y480658D01*
X499990Y478790D01*
X504190D01*
Y482990D01*
D02*
G37*
G36*
X425120Y488850D02*
X412850D01*
Y476580D01*
X413363D01*
X416806Y477503D01*
X419894Y479285D01*
X422415Y481806D01*
X424197Y484894D01*
X425120Y488337D01*
Y488850D01*
D02*
G37*
G36*
X410310D02*
X398040D01*
Y488337D01*
X398963Y484894D01*
X400745Y481806D01*
X403266Y479285D01*
X406354Y477503D01*
X409797Y476580D01*
X410310D01*
Y488850D01*
D02*
G37*
G36*
X374120D02*
X361850D01*
Y476580D01*
X362363D01*
X365806Y477503D01*
X368894Y479285D01*
X371415Y481806D01*
X373197Y484894D01*
X374120Y488337D01*
Y488850D01*
D02*
G37*
G36*
X359310D02*
X347040D01*
Y488337D01*
X347963Y484894D01*
X349745Y481806D01*
X352266Y479285D01*
X355354Y477503D01*
X358797Y476580D01*
X359310D01*
Y488850D01*
D02*
G37*
G36*
X698890Y480060D02*
X694690D01*
Y475860D01*
X696558Y476633D01*
X698117Y478192D01*
X698890Y480060D01*
D02*
G37*
G36*
X692150D02*
X687950D01*
X688723Y478192D01*
X690282Y476633D01*
X692150Y475860D01*
Y480060D01*
D02*
G37*
G36*
X605790Y479180D02*
Y474980D01*
X609990D01*
X609217Y476848D01*
X607658Y478407D01*
X605790Y479180D01*
D02*
G37*
G36*
X603250D02*
X601382Y478407D01*
X599823Y476848D01*
X599050Y474980D01*
X603250D01*
Y479180D01*
D02*
G37*
G36*
X510930Y476250D02*
X506730D01*
Y472050D01*
X508598Y472823D01*
X510157Y474382D01*
X510930Y476250D01*
D02*
G37*
G36*
X504190D02*
X499990D01*
X500763Y474382D01*
X502322Y472823D01*
X504190Y472050D01*
Y476250D01*
D02*
G37*
G36*
X973669Y480520D02*
X971971D01*
X970401Y479870D01*
X969200Y478669D01*
X968550Y477099D01*
Y475401D01*
X969200Y473831D01*
X970401Y472630D01*
X971971Y471980D01*
X973669D01*
X975239Y472630D01*
X976440Y473831D01*
X977090Y475401D01*
Y477099D01*
X976440Y478669D01*
X975239Y479870D01*
X973669Y480520D01*
D02*
G37*
G36*
X609990Y472440D02*
X605790D01*
Y468240D01*
X607658Y469013D01*
X609217Y470572D01*
X609990Y472440D01*
D02*
G37*
G36*
X603250D02*
X599050D01*
X599823Y470572D01*
X601382Y469013D01*
X603250Y468240D01*
Y472440D01*
D02*
G37*
G36*
X412750Y467750D02*
Y463550D01*
X416950D01*
X416177Y465418D01*
X414618Y466977D01*
X412750Y467750D01*
D02*
G37*
G36*
X410210D02*
X408342Y466977D01*
X406783Y465418D01*
X406010Y463550D01*
X410210D01*
Y467750D01*
D02*
G37*
G36*
X361950Y466480D02*
Y462280D01*
X366150D01*
X365377Y464148D01*
X363818Y465707D01*
X361950Y466480D01*
D02*
G37*
G36*
X359410D02*
X357542Y465707D01*
X355983Y464148D01*
X355210Y462280D01*
X359410D01*
Y466480D01*
D02*
G37*
G36*
X1031240Y462670D02*
Y458470D01*
X1035440D01*
X1034667Y460338D01*
X1033108Y461897D01*
X1031240Y462670D01*
D02*
G37*
G36*
X1028700D02*
X1026832Y461897D01*
X1025273Y460338D01*
X1024500Y458470D01*
X1028700D01*
Y462670D01*
D02*
G37*
G36*
X416950Y461010D02*
X412750D01*
Y456810D01*
X414618Y457583D01*
X416177Y459142D01*
X416950Y461010D01*
D02*
G37*
G36*
X410210D02*
X406010D01*
X406783Y459142D01*
X408342Y457583D01*
X410210Y456810D01*
Y461010D01*
D02*
G37*
G36*
X366150Y459740D02*
X361950D01*
Y455540D01*
X363818Y456313D01*
X365377Y457872D01*
X366150Y459740D01*
D02*
G37*
G36*
X359410D02*
X355210D01*
X355983Y457872D01*
X357542Y456313D01*
X359410Y455540D01*
Y459740D01*
D02*
G37*
G36*
X973669Y461470D02*
X971971D01*
X970401Y460820D01*
X969200Y459619D01*
X968550Y458049D01*
Y456351D01*
X969200Y454781D01*
X970401Y453580D01*
X971971Y452930D01*
X973669D01*
X975239Y453580D01*
X976440Y454781D01*
X977090Y456351D01*
Y458049D01*
X976440Y459619D01*
X975239Y460820D01*
X973669Y461470D01*
D02*
G37*
G36*
X1035440Y455930D02*
X1031240D01*
Y451730D01*
X1033108Y452503D01*
X1034667Y454062D01*
X1035440Y455930D01*
D02*
G37*
G36*
X1028700D02*
X1024500D01*
X1025273Y454062D01*
X1026832Y452503D01*
X1028700Y451730D01*
Y455930D01*
D02*
G37*
G36*
X752760Y453210D02*
Y449010D01*
X756960D01*
X756187Y450878D01*
X754628Y452437D01*
X752760Y453210D01*
D02*
G37*
G36*
X750220D02*
X748352Y452437D01*
X746793Y450878D01*
X746020Y449010D01*
X750220D01*
Y453210D01*
D02*
G37*
G36*
X962239Y453850D02*
X960541D01*
X958971Y453200D01*
X957770Y451999D01*
X957120Y450429D01*
Y448731D01*
X957770Y447161D01*
X958971Y445960D01*
X960541Y445310D01*
X962239D01*
X963809Y445960D01*
X965010Y447161D01*
X965660Y448731D01*
Y450429D01*
X965010Y451999D01*
X963809Y453200D01*
X962239Y453850D01*
D02*
G37*
G36*
X722209Y452580D02*
X720511D01*
X718941Y451930D01*
X717740Y450729D01*
X717090Y449159D01*
Y447461D01*
X717740Y445891D01*
X718941Y444690D01*
X720511Y444040D01*
X722209D01*
X723779Y444690D01*
X724980Y445891D01*
X725630Y447461D01*
Y449159D01*
X724980Y450729D01*
X723779Y451930D01*
X722209Y452580D01*
D02*
G37*
G36*
X666329Y451310D02*
X664631D01*
X663061Y450660D01*
X661860Y449459D01*
X661210Y447889D01*
Y446191D01*
X661860Y444621D01*
X663061Y443420D01*
X664631Y442770D01*
X666329D01*
X667899Y443420D01*
X669100Y444621D01*
X669750Y446191D01*
Y447889D01*
X669100Y449459D01*
X667899Y450660D01*
X666329Y451310D01*
D02*
G37*
G36*
X756960Y446470D02*
X752760D01*
Y442270D01*
X754628Y443043D01*
X756187Y444602D01*
X756960Y446470D01*
D02*
G37*
G36*
X750220D02*
X746020D01*
X746793Y444602D01*
X748352Y443043D01*
X750220Y442270D01*
Y446470D01*
D02*
G37*
G36*
X831850Y438540D02*
Y434340D01*
X836050D01*
X835277Y436208D01*
X833718Y437767D01*
X831850Y438540D01*
D02*
G37*
G36*
X829310D02*
X827442Y437767D01*
X825883Y436208D01*
X825110Y434340D01*
X829310D01*
Y438540D01*
D02*
G37*
G36*
X836050Y431800D02*
X831850D01*
Y427600D01*
X833718Y428373D01*
X835277Y429932D01*
X836050Y431800D01*
D02*
G37*
G36*
X829310D02*
X825110D01*
X825883Y429932D01*
X827442Y428373D01*
X829310Y427600D01*
Y431800D01*
D02*
G37*
G36*
X1109559Y436070D02*
X1107861D01*
X1106291Y435420D01*
X1105090Y434219D01*
X1104440Y432649D01*
Y430951D01*
X1105090Y429381D01*
X1106291Y428180D01*
X1107861Y427530D01*
X1109559D01*
X1111129Y428180D01*
X1112330Y429381D01*
X1112980Y430951D01*
Y432649D01*
X1112330Y434219D01*
X1111129Y435420D01*
X1109559Y436070D01*
D02*
G37*
G36*
X790789Y436070D02*
X789091D01*
X787521Y435420D01*
X786320Y434219D01*
X785670Y432649D01*
Y430951D01*
X786320Y429381D01*
X787521Y428180D01*
X789091Y427530D01*
X790789D01*
X792359Y428180D01*
X793560Y429381D01*
X794210Y430951D01*
Y432649D01*
X793560Y434219D01*
X792359Y435420D01*
X790789Y436070D01*
D02*
G37*
G36*
X872069Y435720D02*
X870371D01*
X868801Y435070D01*
X867600Y433869D01*
X866950Y432299D01*
Y430601D01*
X867600Y429031D01*
X868801Y427830D01*
X870371Y427180D01*
X872069D01*
X873639Y427830D01*
X874840Y429031D01*
X875490Y430601D01*
Y432299D01*
X874840Y433869D01*
X873639Y435070D01*
X872069Y435720D01*
D02*
G37*
G36*
X666329Y430990D02*
X664631D01*
X663061Y430340D01*
X661860Y429139D01*
X661210Y427569D01*
Y425871D01*
X661860Y424301D01*
X663061Y423100D01*
X664631Y422450D01*
X666329D01*
X667899Y423100D01*
X669100Y424301D01*
X669750Y425871D01*
Y427569D01*
X669100Y429139D01*
X667899Y430340D01*
X666329Y430990D01*
D02*
G37*
G36*
X1076421Y452120D02*
X1072419D01*
X1068493Y451339D01*
X1064795Y449807D01*
X1061467Y447584D01*
X1058636Y444753D01*
X1056413Y441425D01*
X1054881Y437727D01*
X1054100Y433801D01*
Y429799D01*
X1054881Y425873D01*
X1056413Y422175D01*
X1058636Y418847D01*
X1061467Y416016D01*
X1064795Y413793D01*
X1068493Y412261D01*
X1072419Y411480D01*
X1076421D01*
X1080347Y412261D01*
X1084045Y413793D01*
X1087373Y416016D01*
X1090204Y418847D01*
X1092427Y422175D01*
X1093959Y425873D01*
X1094740Y429799D01*
Y433801D01*
X1093959Y437727D01*
X1092427Y441425D01*
X1090204Y444753D01*
X1087373Y447584D01*
X1084045Y449807D01*
X1080347Y451339D01*
X1076421Y452120D01*
D02*
G37*
G36*
X986790Y408060D02*
Y403860D01*
X990990D01*
X990217Y405728D01*
X988658Y407287D01*
X986790Y408060D01*
D02*
G37*
G36*
X984250D02*
X982382Y407287D01*
X980823Y405728D01*
X980050Y403860D01*
X984250D01*
Y408060D01*
D02*
G37*
G36*
X990990Y401320D02*
X986790D01*
Y397120D01*
X988658Y397893D01*
X990217Y399452D01*
X990990Y401320D01*
D02*
G37*
G36*
X984250D02*
X980050D01*
X980823Y399452D01*
X982382Y397893D01*
X984250Y397120D01*
Y401320D01*
D02*
G37*
G36*
X1011069Y404748D02*
X1009371D01*
X1007801Y404097D01*
X1006600Y402896D01*
X1005950Y401327D01*
Y399628D01*
X1006600Y398059D01*
X1007801Y396858D01*
X1009371Y396208D01*
X1011069D01*
X1012639Y396858D01*
X1013840Y398059D01*
X1014490Y399628D01*
Y401327D01*
X1013840Y402896D01*
X1012639Y404097D01*
X1011069Y404748D01*
D02*
G37*
G36*
X812812Y394997D02*
X811113D01*
X809544Y394347D01*
X808343Y393146D01*
X807693Y391577D01*
Y389878D01*
X808343Y388309D01*
X809544Y387108D01*
X811113Y386457D01*
X812812D01*
X814381Y387108D01*
X815583Y388309D01*
X816233Y389878D01*
Y391577D01*
X815583Y393146D01*
X814381Y394347D01*
X812812Y394997D01*
D02*
G37*
G36*
X1096010Y402590D02*
X1075690D01*
Y382270D01*
X1096010D01*
Y402590D01*
D02*
G37*
G36*
X1107440Y386470D02*
Y382270D01*
X1111640D01*
X1110867Y384138D01*
X1109308Y385697D01*
X1107440Y386470D01*
D02*
G37*
G36*
X1104900D02*
X1103032Y385697D01*
X1101473Y384138D01*
X1100700Y382270D01*
X1104900D01*
Y386470D01*
D02*
G37*
G36*
X1073150Y402590D02*
X1052830D01*
Y382270D01*
X1073150D01*
Y402590D01*
D02*
G37*
G36*
X728980Y381390D02*
Y377190D01*
X733180D01*
X732407Y379058D01*
X730848Y380617D01*
X728980Y381390D01*
D02*
G37*
G36*
X726440D02*
X724572Y380617D01*
X723013Y379058D01*
X722240Y377190D01*
X726440D01*
Y381390D01*
D02*
G37*
G36*
X1111640Y379730D02*
X1107440D01*
Y375530D01*
X1109308Y376303D01*
X1110867Y377862D01*
X1111640Y379730D01*
D02*
G37*
G36*
X1104900D02*
X1100700D01*
X1101473Y377862D01*
X1103032Y376303D01*
X1104900Y375530D01*
Y379730D01*
D02*
G37*
G36*
X665480Y375040D02*
Y370840D01*
X669680D01*
X668907Y372708D01*
X667348Y374267D01*
X665480Y375040D01*
D02*
G37*
G36*
X662940D02*
X661072Y374267D01*
X659513Y372708D01*
X658740Y370840D01*
X662940D01*
Y375040D01*
D02*
G37*
G36*
X733180Y374650D02*
X728980D01*
Y370450D01*
X730848Y371223D01*
X732407Y372782D01*
X733180Y374650D01*
D02*
G37*
G36*
X726440D02*
X722240D01*
X723013Y372782D01*
X724572Y371223D01*
X726440Y370450D01*
Y374650D01*
D02*
G37*
G36*
X750720Y388835D02*
X737720D01*
X736748Y388432D01*
X736345Y387460D01*
Y369460D01*
X736748Y368488D01*
X737720Y368085D01*
X750720D01*
X751692Y368488D01*
X752095Y369460D01*
Y387460D01*
X751692Y388432D01*
X750720Y388835D01*
D02*
G37*
G36*
X806029Y376380D02*
X804331D01*
X802761Y375730D01*
X801560Y374529D01*
X800910Y372959D01*
Y371261D01*
X801560Y369691D01*
X802761Y368490D01*
X804331Y367840D01*
X806029D01*
X807599Y368490D01*
X808800Y369691D01*
X809450Y371261D01*
Y372959D01*
X808800Y374529D01*
X807599Y375730D01*
X806029Y376380D01*
D02*
G37*
G36*
X669680Y368300D02*
X665480D01*
Y364100D01*
X667348Y364873D01*
X668907Y366432D01*
X669680Y368300D01*
D02*
G37*
G36*
X662940D02*
X658740D01*
X659513Y366432D01*
X661072Y364873D01*
X662940Y364100D01*
Y368300D01*
D02*
G37*
G36*
X1027009Y368760D02*
X1025311D01*
X1023741Y368110D01*
X1022540Y366909D01*
X1021890Y365339D01*
Y363641D01*
X1022540Y362071D01*
X1023741Y360870D01*
X1025311Y360220D01*
X1027009D01*
X1028579Y360870D01*
X1029780Y362071D01*
X1030430Y363641D01*
Y365339D01*
X1029780Y366909D01*
X1028579Y368110D01*
X1027009Y368760D01*
D02*
G37*
G36*
X1096010Y379730D02*
X1075690D01*
Y359410D01*
X1096010D01*
Y379730D01*
D02*
G37*
G36*
X1073150D02*
X1052830D01*
Y359410D01*
X1073150D01*
Y379730D01*
D02*
G37*
G36*
X789519Y364950D02*
X787821D01*
X786251Y364300D01*
X785050Y363099D01*
X784400Y361529D01*
Y359831D01*
X785050Y358261D01*
X786251Y357060D01*
X787821Y356410D01*
X789519D01*
X791089Y357060D01*
X792290Y358261D01*
X792940Y359831D01*
Y361529D01*
X792290Y363099D01*
X791089Y364300D01*
X789519Y364950D01*
D02*
G37*
G36*
X775549D02*
X773851D01*
X772281Y364300D01*
X771080Y363099D01*
X770430Y361529D01*
Y359831D01*
X771080Y358261D01*
X772281Y357060D01*
X773851Y356410D01*
X775549D01*
X777119Y357060D01*
X778320Y358261D01*
X778970Y359831D01*
Y361529D01*
X778320Y363099D01*
X777119Y364300D01*
X775549Y364950D01*
D02*
G37*
G36*
X737449Y359870D02*
X735751D01*
X734181Y359220D01*
X732980Y358019D01*
X732330Y356449D01*
Y354751D01*
X732980Y353181D01*
X734181Y351980D01*
X735751Y351330D01*
X737449D01*
X739019Y351980D01*
X740220Y353181D01*
X740870Y354751D01*
Y356449D01*
X740220Y358019D01*
X739019Y359220D01*
X737449Y359870D01*
D02*
G37*
G36*
X907629Y350980D02*
X905931D01*
X904361Y350330D01*
X903160Y349129D01*
X902510Y347559D01*
Y345861D01*
X903160Y344291D01*
X904361Y343090D01*
X905931Y342440D01*
X907629D01*
X909199Y343090D01*
X910400Y344291D01*
X911050Y345861D01*
Y347559D01*
X910400Y349129D01*
X909199Y350330D01*
X907629Y350980D01*
D02*
G37*
G36*
X720939Y345900D02*
X719241D01*
X717671Y345250D01*
X716470Y344049D01*
X715820Y342479D01*
Y340781D01*
X716470Y339211D01*
X717671Y338010D01*
X719241Y337360D01*
X720939D01*
X722509Y338010D01*
X723710Y339211D01*
X724360Y340781D01*
Y342479D01*
X723710Y344049D01*
X722509Y345250D01*
X720939Y345900D01*
D02*
G37*
G36*
X851749Y337010D02*
X850051D01*
X848481Y336360D01*
X847280Y335159D01*
X846630Y333589D01*
Y331891D01*
X847280Y330321D01*
X848481Y329120D01*
X850051Y328470D01*
X851749D01*
X853319Y329120D01*
X854520Y330321D01*
X855170Y331891D01*
Y333589D01*
X854520Y335159D01*
X853319Y336360D01*
X851749Y337010D01*
D02*
G37*
G36*
X1010879Y321770D02*
X1009181D01*
X1007611Y321120D01*
X1006845Y320353D01*
X1006030Y320057D01*
X1005215Y320353D01*
X1004449Y321120D01*
X1002879Y321770D01*
X1001181D01*
X999611Y321120D01*
X998410Y319919D01*
X997760Y318349D01*
Y316651D01*
X998410Y315081D01*
X999611Y313880D01*
X1001181Y313230D01*
X1002879D01*
X1004449Y313880D01*
X1005215Y314647D01*
X1006030Y314943D01*
X1006845Y314647D01*
X1007611Y313880D01*
X1009181Y313230D01*
X1010879D01*
X1012449Y313880D01*
X1013650Y315081D01*
X1014300Y316651D01*
Y318349D01*
X1013650Y319919D01*
X1012449Y321120D01*
X1010879Y321770D01*
D02*
G37*
G36*
X719669Y315420D02*
X717971D01*
X716401Y314770D01*
X715200Y313569D01*
X714550Y311999D01*
Y310301D01*
X715200Y308731D01*
X716401Y307530D01*
X717971Y306880D01*
X719669D01*
X721239Y307530D01*
X722440Y308731D01*
X723090Y310301D01*
Y311999D01*
X722440Y313569D01*
X721239Y314770D01*
X719669Y315420D01*
D02*
G37*
G36*
X694269D02*
X692571D01*
X691001Y314770D01*
X689800Y313569D01*
X689150Y311999D01*
Y310301D01*
X689800Y308731D01*
X691001Y307530D01*
X692571Y306880D01*
X694269D01*
X695839Y307530D01*
X697040Y308731D01*
X697690Y310301D01*
Y311999D01*
X697040Y313569D01*
X695839Y314770D01*
X694269Y315420D01*
D02*
G37*
G36*
X668869D02*
X667171D01*
X665601Y314770D01*
X664400Y313569D01*
X663750Y311999D01*
Y310301D01*
X664400Y308731D01*
X665601Y307530D01*
X667171Y306880D01*
X668869D01*
X670439Y307530D01*
X671640Y308731D01*
X672290Y310301D01*
Y311999D01*
X671640Y313569D01*
X670439Y314770D01*
X668869Y315420D01*
D02*
G37*
G36*
X643469D02*
X641771D01*
X640201Y314770D01*
X639000Y313569D01*
X638350Y311999D01*
Y310301D01*
X639000Y308731D01*
X640201Y307530D01*
X641771Y306880D01*
X643469D01*
X645039Y307530D01*
X646240Y308731D01*
X646890Y310301D01*
Y311999D01*
X646240Y313569D01*
X645039Y314770D01*
X643469Y315420D01*
D02*
G37*
G36*
X618069D02*
X616371D01*
X614801Y314770D01*
X613600Y313569D01*
X612950Y311999D01*
Y310301D01*
X613600Y308731D01*
X614801Y307530D01*
X616371Y306880D01*
X618069D01*
X619639Y307530D01*
X620840Y308731D01*
X621490Y310301D01*
Y311999D01*
X620840Y313569D01*
X619639Y314770D01*
X618069Y315420D01*
D02*
G37*
G36*
X592669D02*
X590971D01*
X589401Y314770D01*
X588200Y313569D01*
X587550Y311999D01*
Y310301D01*
X588200Y308731D01*
X589401Y307530D01*
X590971Y306880D01*
X592669D01*
X594239Y307530D01*
X595440Y308731D01*
X596090Y310301D01*
Y311999D01*
X595440Y313569D01*
X594239Y314770D01*
X592669Y315420D01*
D02*
G37*
G36*
X858099Y312880D02*
X856401D01*
X854831Y312230D01*
X853630Y311029D01*
X852980Y309459D01*
Y307761D01*
X853630Y306191D01*
X854831Y304990D01*
X856401Y304340D01*
X858099D01*
X859669Y304990D01*
X860870Y306191D01*
X861520Y307761D01*
Y309459D01*
X860870Y311029D01*
X859669Y312230D01*
X858099Y312880D01*
D02*
G37*
G36*
X967250Y313904D02*
X967176Y313890D01*
X966500D01*
X965712Y313733D01*
X965044Y313286D01*
X964597Y312618D01*
X964440Y311830D01*
Y311154D01*
X964426Y311080D01*
Y305080D01*
X964440Y305006D01*
Y304330D01*
X964597Y303542D01*
X965044Y302874D01*
X965712Y302427D01*
X966500Y302270D01*
X967176D01*
X967250Y302256D01*
X967324Y302270D01*
X968000D01*
X968788Y302427D01*
X969456Y302874D01*
X969903Y303542D01*
X970060Y304330D01*
Y305006D01*
X970074Y305080D01*
Y311080D01*
X970060Y311154D01*
Y311830D01*
X969903Y312618D01*
X969456Y313286D01*
X968788Y313733D01*
X968000Y313890D01*
X967324D01*
X967250Y313904D01*
D02*
G37*
G36*
X1016849Y310340D02*
X1015151D01*
X1013581Y309690D01*
X1012380Y308489D01*
X1011730Y306919D01*
Y305221D01*
X1012380Y303651D01*
X1013581Y302450D01*
X1015151Y301800D01*
X1016849D01*
X1018419Y302450D01*
X1019620Y303651D01*
X1020270Y305221D01*
Y306919D01*
X1019620Y308489D01*
X1018419Y309690D01*
X1016849Y310340D01*
D02*
G37*
G36*
X781899D02*
X780201D01*
X778631Y309690D01*
X777430Y308489D01*
X776780Y306919D01*
Y305221D01*
X777430Y303651D01*
X778631Y302450D01*
X780201Y301800D01*
X781899D01*
X783469Y302450D01*
X784670Y303651D01*
X785320Y305221D01*
Y306919D01*
X784670Y308489D01*
X783469Y309690D01*
X781899Y310340D01*
D02*
G37*
G36*
X1040250Y314455D02*
X1037250D01*
X1036997Y314350D01*
X1035980D01*
Y313333D01*
X1035875Y313080D01*
Y303080D01*
X1035980Y302827D01*
Y301810D01*
X1036997D01*
X1037250Y301705D01*
X1040250D01*
X1040503Y301810D01*
X1041520D01*
Y302827D01*
X1041625Y303080D01*
Y313080D01*
X1041520Y313333D01*
Y314350D01*
X1040503D01*
X1040250Y314455D01*
D02*
G37*
G36*
X981710Y296300D02*
Y292100D01*
X985910D01*
X985137Y293968D01*
X983578Y295527D01*
X981710Y296300D01*
D02*
G37*
G36*
X979170D02*
X977302Y295527D01*
X975743Y293968D01*
X974970Y292100D01*
X979170D01*
Y296300D01*
D02*
G37*
G36*
X884103Y296790D02*
X883920D01*
Y287020D01*
X893690D01*
Y287203D01*
X892938Y290011D01*
X891484Y292529D01*
X889429Y294584D01*
X886911Y296038D01*
X884103Y296790D01*
D02*
G37*
G36*
X881380D02*
X881197D01*
X878389Y296038D01*
X875871Y294584D01*
X873816Y292529D01*
X872362Y290011D01*
X871610Y287203D01*
Y287020D01*
X881380D01*
Y296790D01*
D02*
G37*
G36*
X985910Y289560D02*
X981710D01*
Y285360D01*
X983578Y286133D01*
X985137Y287692D01*
X985910Y289560D01*
D02*
G37*
G36*
X979170D02*
X974970D01*
X975743Y287692D01*
X977302Y286133D01*
X979170Y285360D01*
Y289560D01*
D02*
G37*
G36*
X729090Y299830D02*
X708550D01*
Y279290D01*
X729090D01*
Y299830D01*
D02*
G37*
G36*
X703690D02*
X683150D01*
Y279290D01*
X703690D01*
Y299830D01*
D02*
G37*
G36*
X678290D02*
X657750D01*
Y279290D01*
X678290D01*
Y299830D01*
D02*
G37*
G36*
X652890D02*
X632350D01*
Y279290D01*
X652890D01*
Y299830D01*
D02*
G37*
G36*
X627490D02*
X606950D01*
Y279290D01*
X627490D01*
Y299830D01*
D02*
G37*
G36*
X602090D02*
X581550D01*
Y279290D01*
X602090D01*
Y299830D01*
D02*
G37*
G36*
X909336Y295520D02*
X906764D01*
X904279Y294854D01*
X902051Y293568D01*
X900232Y291749D01*
X898946Y289521D01*
X898280Y287036D01*
Y284464D01*
X898946Y281979D01*
X900232Y279751D01*
X902051Y277932D01*
X904279Y276646D01*
X906764Y275980D01*
X909336D01*
X911821Y276646D01*
X914049Y277932D01*
X915868Y279751D01*
X917154Y281979D01*
X917820Y284464D01*
Y287036D01*
X917154Y289521D01*
X915868Y291749D01*
X914049Y293568D01*
X911821Y294854D01*
X909336Y295520D01*
D02*
G37*
G36*
X858536D02*
X855964D01*
X853479Y294854D01*
X851251Y293568D01*
X849432Y291749D01*
X848146Y289521D01*
X847480Y287036D01*
Y284464D01*
X848146Y281979D01*
X849432Y279751D01*
X851251Y277932D01*
X853479Y276646D01*
X855964Y275980D01*
X858536D01*
X861021Y276646D01*
X863249Y277932D01*
X865068Y279751D01*
X866354Y281979D01*
X867020Y284464D01*
Y287036D01*
X866354Y289521D01*
X865068Y291749D01*
X863249Y293568D01*
X861021Y294854D01*
X858536Y295520D01*
D02*
G37*
G36*
X833136D02*
X830564D01*
X828079Y294854D01*
X825851Y293568D01*
X824032Y291749D01*
X822746Y289521D01*
X822080Y287036D01*
Y284464D01*
X822746Y281979D01*
X824032Y279751D01*
X825851Y277932D01*
X828079Y276646D01*
X830564Y275980D01*
X833136D01*
X835621Y276646D01*
X837849Y277932D01*
X839668Y279751D01*
X840954Y281979D01*
X841620Y284464D01*
Y287036D01*
X840954Y289521D01*
X839668Y291749D01*
X837849Y293568D01*
X835621Y294854D01*
X833136Y295520D01*
D02*
G37*
G36*
X807736D02*
X805164D01*
X802679Y294854D01*
X800451Y293568D01*
X798632Y291749D01*
X797346Y289521D01*
X796680Y287036D01*
Y284464D01*
X797346Y281979D01*
X798632Y279751D01*
X800451Y277932D01*
X802679Y276646D01*
X805164Y275980D01*
X807736D01*
X810221Y276646D01*
X812449Y277932D01*
X814268Y279751D01*
X815554Y281979D01*
X816220Y284464D01*
Y287036D01*
X815554Y289521D01*
X814268Y291749D01*
X812449Y293568D01*
X810221Y294854D01*
X807736Y295520D01*
D02*
G37*
G36*
X790820D02*
X771280D01*
Y275980D01*
X790820D01*
Y295520D01*
D02*
G37*
G36*
X1023651Y281100D02*
X1022350D01*
X1021148Y280602D01*
X1020228Y279682D01*
X1019730Y278480D01*
Y277180D01*
X1020228Y275978D01*
X1021148Y275058D01*
X1022350Y274560D01*
X1023651D01*
X1024852Y275058D01*
X1025772Y275978D01*
X1026270Y277180D01*
Y278480D01*
X1025772Y279682D01*
X1024852Y280602D01*
X1023651Y281100D01*
D02*
G37*
G36*
X983650D02*
X982349D01*
X981148Y280602D01*
X980228Y279682D01*
X979730Y278480D01*
Y277180D01*
X980228Y275978D01*
X981148Y275058D01*
X982349Y274560D01*
X983650D01*
X984852Y275058D01*
X985772Y275978D01*
X986270Y277180D01*
Y278480D01*
X985772Y279682D01*
X984852Y280602D01*
X983650Y281100D01*
D02*
G37*
G36*
X893690Y284480D02*
X882650D01*
X871610D01*
Y284297D01*
X872362Y281489D01*
X873816Y278971D01*
X875871Y276916D01*
X878124Y275615D01*
X878561Y274256D01*
X877953Y273648D01*
X877180Y271780D01*
X888120D01*
X887347Y273648D01*
X886739Y274256D01*
X887176Y275615D01*
X889429Y276916D01*
X891484Y278971D01*
X892938Y281489D01*
X893690Y284297D01*
Y284480D01*
D02*
G37*
G36*
X967250Y279404D02*
X967176Y279390D01*
X966500D01*
X965712Y279233D01*
X965044Y278786D01*
X964597Y278118D01*
X964440Y277330D01*
Y276654D01*
X964426Y276580D01*
Y270580D01*
X964440Y270506D01*
Y269830D01*
X964597Y269042D01*
X965044Y268374D01*
X965712Y267927D01*
X966500Y267770D01*
X967176D01*
X967250Y267756D01*
X967324Y267770D01*
X968000D01*
X968788Y267927D01*
X969456Y268374D01*
X969903Y269042D01*
X970060Y269830D01*
Y270506D01*
X970074Y270580D01*
Y276580D01*
X970060Y276654D01*
Y277330D01*
X969903Y278118D01*
X969456Y278786D01*
X968788Y279233D01*
X968000Y279390D01*
X967324D01*
X967250Y279404D01*
D02*
G37*
G36*
X1040250Y279955D02*
X1037250D01*
X1036997Y279850D01*
X1035980D01*
Y278833D01*
X1035875Y278580D01*
Y268580D01*
X1035980Y268327D01*
Y267310D01*
X1036997D01*
X1037250Y267205D01*
X1040250D01*
X1040503Y267310D01*
X1041520D01*
Y268327D01*
X1041625Y268580D01*
Y278580D01*
X1041520Y278833D01*
Y279850D01*
X1040503D01*
X1040250Y279955D01*
D02*
G37*
G36*
X888120Y269240D02*
X883920D01*
Y265040D01*
X885788Y265813D01*
X887347Y267372D01*
X888120Y269240D01*
D02*
G37*
G36*
X881380D02*
X877180D01*
X877953Y267372D01*
X879512Y265813D01*
X881380Y265040D01*
Y269240D01*
D02*
G37*
%LPD*%
D90*
X386080Y515620D02*
D03*
D91*
X360580Y490120D02*
D03*
Y541120D02*
D03*
X411580Y490120D02*
D03*
Y541120D02*
D03*
D92*
X808990Y725170D02*
D03*
X783590D02*
D03*
X758190D02*
D03*
X732790D02*
D03*
X707390D02*
D03*
X681990D02*
D03*
X781050Y285750D02*
D03*
D93*
X718820Y289560D02*
D03*
X693420D02*
D03*
X668020D02*
D03*
X642620D02*
D03*
X617220D02*
D03*
X591820D02*
D03*
X1102360Y725170D02*
D03*
X1076960D02*
D03*
X1051560D02*
D03*
X1026160D02*
D03*
X1000760D02*
D03*
X975360D02*
D03*
X949960D02*
D03*
X924560D02*
D03*
X899160D02*
D03*
X873760D02*
D03*
D94*
X882650Y285750D02*
D03*
X857250D02*
D03*
X831850D02*
D03*
X806450D02*
D03*
X908050D02*
D03*
D95*
X1074420Y381000D02*
D03*
D96*
Y431800D02*
D03*
D97*
X983000Y277830D02*
D03*
X1023000D02*
D03*
D98*
X967250Y308080D02*
D03*
Y273580D02*
D03*
X1038750D02*
D03*
Y308080D02*
D03*
D99*
X1076960Y706120D02*
D03*
X1051560D02*
D03*
X882650Y270510D02*
D03*
X980440Y290830D02*
D03*
X1016000Y306070D02*
D03*
X1026160Y364490D02*
D03*
X906780Y346710D02*
D03*
X1002030Y317500D02*
D03*
X1010030D02*
D03*
X1106170Y381000D02*
D03*
X1010220Y400477D02*
D03*
X985520Y402590D02*
D03*
X1108710Y431800D02*
D03*
X961390Y449580D02*
D03*
X972820Y457200D02*
D03*
X1029970Y457200D02*
D03*
X972820Y476250D02*
D03*
X1104900Y494030D02*
D03*
X1008380Y496570D02*
D03*
X893730Y497840D02*
D03*
X924560Y501650D02*
D03*
X969010Y508000D02*
D03*
X946150Y523240D02*
D03*
X887730Y525780D02*
D03*
X1022350Y558800D02*
D03*
X1084580Y565150D02*
D03*
X1022350Y571500D02*
D03*
X1120140Y582930D02*
D03*
X1056640Y584200D02*
D03*
X944880Y621030D02*
D03*
X1141730Y674370D02*
D03*
X944880Y675640D02*
D03*
X963930Y676910D02*
D03*
X1004570Y679450D02*
D03*
X1054100D02*
D03*
X975360Y703580D02*
D03*
X949960Y704850D02*
D03*
X1000760D02*
D03*
X1026160D02*
D03*
X1102360D02*
D03*
X788670Y360680D02*
D03*
X781050Y306070D02*
D03*
X774700Y360680D02*
D03*
X360680Y461010D02*
D03*
X411480Y462280D02*
D03*
X505460Y477520D02*
D03*
X551434Y505460D02*
D03*
X579861Y488765D02*
D03*
X609600Y500380D02*
D03*
X608330Y520700D02*
D03*
X595630Y487680D02*
D03*
X604520Y473710D02*
D03*
X690880Y582930D02*
D03*
X670560Y524510D02*
D03*
X693420Y481330D02*
D03*
X789940Y487680D02*
D03*
X693420Y501270D02*
D03*
X745490Y501650D02*
D03*
X488950Y525780D02*
D03*
X551180Y528320D02*
D03*
X411480Y568960D02*
D03*
X360680D02*
D03*
X588010Y544830D02*
D03*
X518160D02*
D03*
X589280Y595630D02*
D03*
X609600Y551180D02*
D03*
X568960Y552450D02*
D03*
X609600Y628650D02*
D03*
X544830Y582930D02*
D03*
X594360Y562610D02*
D03*
X538480Y562610D02*
D03*
X609600Y608330D02*
D03*
X791516Y606300D02*
D03*
X763270Y529590D02*
D03*
X749310Y603844D02*
D03*
X751840Y553720D02*
D03*
X747724Y560580D02*
D03*
X749455Y568390D02*
D03*
X753270Y575422D02*
D03*
X748030Y582930D02*
D03*
X753270Y588975D02*
D03*
X749172Y595845D02*
D03*
X784860Y598170D02*
D03*
X770890Y549050D02*
D03*
X774824Y541427D02*
D03*
X668020Y608330D02*
D03*
X670560Y628650D02*
D03*
X739840Y653350D02*
D03*
X777240Y679450D02*
D03*
X775970Y694690D02*
D03*
X783590Y741680D02*
D03*
X732790Y703580D02*
D03*
X758190D02*
D03*
X681990D02*
D03*
X707390D02*
D03*
X796290Y511810D02*
D03*
X805180Y372110D02*
D03*
X811963Y390727D02*
D03*
X812690Y513080D02*
D03*
X818395Y501365D02*
D03*
X825880Y504190D02*
D03*
X830580Y433070D02*
D03*
X838200Y500380D02*
D03*
X847090Y504190D02*
D03*
X850900Y332740D02*
D03*
X857250Y308610D02*
D03*
X871220Y431450D02*
D03*
Y488950D02*
D03*
X943610Y553720D02*
D03*
X866092Y562158D02*
D03*
X842010Y562610D02*
D03*
X869950Y570230D02*
D03*
X798830Y576580D02*
D03*
X878840Y577850D02*
D03*
X900430Y582930D02*
D03*
X861207Y584813D02*
D03*
X827832Y595975D02*
D03*
X815832Y597491D02*
D03*
X803832Y598657D02*
D03*
X853746Y601287D02*
D03*
X845820Y602370D02*
D03*
X818113Y605159D02*
D03*
X830113Y605233D02*
D03*
X805180Y608330D02*
D03*
X855980Y619760D02*
D03*
X916015Y622650D02*
D03*
X817880Y671830D02*
D03*
X795020Y674370D02*
D03*
X925830Y675640D02*
D03*
X873760Y703580D02*
D03*
X899160D02*
D03*
X808990Y704850D02*
D03*
X924560D02*
D03*
X617220Y311150D02*
D03*
X642620D02*
D03*
X668020D02*
D03*
X718820D02*
D03*
X693420D02*
D03*
X720090Y341630D02*
D03*
X736600Y355600D02*
D03*
X664210Y369570D02*
D03*
X591820Y311150D02*
D03*
X784860Y509270D02*
D03*
X689610Y510540D02*
D03*
X696042Y524510D02*
D03*
X727710Y375920D02*
D03*
X665480Y426720D02*
D03*
X789940Y431800D02*
D03*
X665480Y447040D02*
D03*
X751490Y447740D02*
D03*
X721360Y448310D02*
D03*
X613410Y589280D02*
D03*
X614680Y570230D02*
D03*
X769913Y607685D02*
D03*
X797560Y533400D02*
D03*
X840740D02*
D03*
X837873Y603288D02*
D03*
M02*
