M48
;Layer_Color=9474304
;FILE_FORMAT=4:4
METRIC,TZ
;TYPE=PLATED
T1F00S00C0.3000
T4F00S00C0.3500
T7F00S00C1.2500
T8F00S00C1.3000
T9F00S00C1.4000
T10F00S00C1.5000
%
T01
X591820Y311150
X617220
X642620
X668020
X693420
X718820
X720090Y341630
X736600Y355600
X727710Y375920
X774700Y360680
X788670
X781050Y306070
X664210Y369570
X805180Y372110
X811963Y390727
X850900Y332740
X857250Y308610
X882650Y270510
X906780Y346710
X1002030Y317500
X1010030
X1016000Y306070
X980440Y290830
X1026160Y364490
X1106170Y381000
X1108710Y431800
X1104900Y494030
X1084580Y565150
X1056640Y584200
X1022350Y571500
Y558800
X1008380Y496570
X969010Y508000
X972820Y476250
Y457200
X961390Y449580
X985520Y402590
X1010220Y400477
X1029970Y457200
X924560Y501650
X893730Y497840
X871220Y488950
X847090Y504190
X838200Y500380
X825880Y504190
X818395Y501365
X812690Y513080
X796290Y511810
X797560Y533400
X840740
X842010Y562610
X866092Y562158
X869950Y570230
X878840Y577850
X861207Y584813
X853746Y601287
X845820Y602370
X837873Y603288
X830113Y605233
X827832Y595975
X815832Y597491
X818113Y605159
X805180Y608330
X803832Y598657
X798830Y576580
X855980Y619760
X916015Y622650
X944880Y621030
X944880Y675640
X925830Y675640
X924560Y704850
X949960
X975360Y703580
X1000760Y704850
X1026160
X1051560Y706120
X1076960
X1102360Y704850
X1141730Y674370
X1054100Y679450
X1004570
X963930Y676910
X899160Y703580
X873760
X808990Y704850
X817880Y671830
X795020Y674370
X900430Y582930
X887730Y525780
X946150Y523240
X943610Y553720
X871220Y431450
X830580Y433070
X1120140Y582930
X784860Y598170
X791516Y606300
X769913Y607685
X749310Y603844
X749172Y595845
X753270Y588975
X748030Y582930
X753270Y575422
X749455Y568390
X747724Y560580
X751840Y553720
X770890Y549050
X774824Y541427
X763270Y529590
X784860Y509270
X789940Y487680
Y431800
X751490Y447740
X721360Y448310
X665480Y447040
Y426720
X693420Y481330
X693420Y501270
X689610Y510540
X696042Y524510
X670560
X608330Y520700
X609600Y500380
X595630Y487680
X579861Y488765
X604520Y473710
X609600Y551180
X614680Y570230
X613410Y589280
X609600Y608330
X609600Y628650
X589280Y595630
X594360Y562610
X588010Y544830
X568960Y552450
X538480Y562610
X544830Y582930
X551180Y528320
X551434Y505460
X518160Y544830
X488950Y525780
X505460Y477520
X411480Y462280
Y568960
X690880Y582930
X668020Y608330
X670560Y628650
X681990Y703580
X707390
X732790
X758190
X775970Y694690
X777240Y679450
X739840Y653350
X783590Y741680
X745490Y501650
X360680Y461010
Y568960
T04
X983000Y277830
X1023000
T07
X781050Y285750
X806450
X831850
X857250
X882650
X908050
T08
X1074420Y381000
Y431800
T09
X386080Y515620
T10
X411580Y490120
Y541120
X360580
Y490120
M30
